<mxfile host="drawio-plugin" modified="2022-12-12T12:10:04.569Z" agent="5.0 (Macintosh; Intel Mac OS X 10_15_7) AppleWebKit/537.36 (KHTML, like Gecko) Chrome/104.0.5112.102 Safari/537.36" etag="Nnb5oswT-_IXChqTvix8" version="20.5.3" type="embed"><diagram id="5TMRaKoSEPfQI6amTbeM" name="第 2 页"><mxGraphModel dx="3052" dy="701" grid="1" gridSize="10" guides="1" tooltips="1" connect="1" arrows="1" fold="1" page="0" pageScale="1" pageWidth="827" pageHeight="1169" math="0" shadow="0"><root><mxCell id="0"/><mxCell id="1" parent="0"/><object label="%nodeDesc%" placeholders="1" nodeDesc="新增项目" shapeType="NODE" id="325"><mxCell style="rounded=0;whiteSpace=wrap;html=1;shadow=0;glass=0;sketch=0;fillStyle=auto;strokeWidth=1;metaEdit=1;resizable=1;rotatable=0;snapToPoint=0;connectable=1;absoluteArcSize=0;noLabel=0;labelPadding=0;allowArrows=1;recursiveResize=1;expand=1;editable=1;movable=1;deletable=1;fixDash=0;collapsible=0;portConstraintRotation=0;points=[[0,0.5,0,0,0],[1,0.5,0,0,0]];backgroundOutline=0;resizeHeight=1;resizeWidth=1;" parent="1" vertex="1"><mxGeometry x="-222.5" y="370" width="135" height="40" as="geometry"/></mxCell></object><object label="%nodeDesc%" placeholders="1" nodeDesc="更新项目信息" shapeType="NODE" id="326"><mxCell style="rounded=0;whiteSpace=wrap;html=1;shadow=0;glass=0;sketch=0;fillStyle=auto;strokeWidth=1;metaEdit=1;resizable=1;rotatable=0;snapToPoint=0;connectable=1;absoluteArcSize=0;noLabel=0;labelPadding=0;allowArrows=1;recursiveResize=1;expand=1;editable=1;movable=1;deletable=1;fixDash=0;collapsible=0;portConstraintRotation=0;points=[[0,0.5,0,0,0],[1,0.5,0,0,0]];backgroundOutline=0;resizeHeight=1;resizeWidth=1;" parent="1" vertex="1"><mxGeometry x="180" y="370" width="135" height="40" as="geometry"/></mxCell></object><object label="%nodeDesc%" placeholders="1" nodeDesc="删除项目" shapeType="NODE" id="328"><mxCell style="rounded=0;whiteSpace=wrap;html=1;shadow=0;glass=0;sketch=0;fillStyle=auto;strokeWidth=1;metaEdit=1;resizable=1;rotatable=0;snapToPoint=0;connectable=1;absoluteArcSize=0;noLabel=0;labelPadding=0;allowArrows=1;recursiveResize=1;expand=1;editable=1;movable=1;deletable=1;fixDash=0;collapsible=0;portConstraintRotation=0;points=[[0,0.5,0,0,0],[1,0.5,0,0,0]];backgroundOutline=0;resizeHeight=1;resizeWidth=1;" parent="1" vertex="1"><mxGeometry x="580" y="370" width="135" height="40" as="geometry"/></mxCell></object><object label="%nodeDesc%" placeholders="1" nodeDesc="新增领域图谱" shapeType="NODE" id="329"><mxCell style="rounded=0;whiteSpace=wrap;html=1;shadow=0;glass=0;sketch=0;fillStyle=auto;strokeWidth=1;metaEdit=1;resizable=1;rotatable=0;snapToPoint=0;connectable=1;absoluteArcSize=0;noLabel=0;labelPadding=0;allowArrows=1;recursiveResize=1;expand=1;editable=1;movable=1;deletable=1;fixDash=0;collapsible=0;portConstraintRotation=0;points=[[0,0.5,0,0,0],[1,0.5,0,0,0]];backgroundOutline=0;resizeHeight=1;resizeWidth=1;" parent="1" vertex="1"><mxGeometry x="1350" y="370" width="135" height="40" as="geometry"/></mxCell></object><object label="%nodeDesc%" placeholders="1" nodeDesc="更新领域图谱信息" shapeType="NODE" id="330"><mxCell style="rounded=0;whiteSpace=wrap;html=1;shadow=0;glass=0;sketch=0;fillStyle=auto;strokeWidth=1;metaEdit=1;resizable=1;rotatable=0;snapToPoint=0;connectable=1;absoluteArcSize=0;noLabel=0;labelPadding=0;allowArrows=1;recursiveResize=1;expand=1;editable=1;movable=1;deletable=1;fixDash=0;collapsible=0;portConstraintRotation=0;points=[[0,0.5,0,0,0],[1,0.5,0,0,0]];backgroundOutline=0;resizeHeight=1;resizeWidth=1;" parent="1" vertex="1"><mxGeometry x="1720" y="370" width="135" height="40" as="geometry"/></mxCell></object><object label="%nodeDesc%" placeholders="1" nodeDesc="删除领域图谱" shapeType="NODE" id="331"><mxCell style="rounded=0;whiteSpace=wrap;html=1;shadow=0;glass=0;sketch=0;fillStyle=auto;strokeWidth=1;metaEdit=1;resizable=1;rotatable=0;snapToPoint=0;connectable=1;absoluteArcSize=0;noLabel=0;labelPadding=0;allowArrows=1;recursiveResize=1;expand=1;editable=1;movable=1;deletable=1;fixDash=0;collapsible=0;portConstraintRotation=0;points=[[0,0.5,0,0,0],[1,0.5,0,0,0]];backgroundOutline=0;resizeHeight=1;resizeWidth=1;" parent="1" vertex="1"><mxGeometry x="2110" y="370" width="135" height="40" as="geometry"/></mxCell></object><object label="《%shapeType%》&#10;%className%&#10;%classDesc%" placeholders="1" shapeType="AGGREGATION" className="Project" classDesc="项目" id="332"><mxCell style="swimlane;fontStyle=3;align=center;verticalAlign=top;childLayout=stackLayout;horizontal=1;startSize=55;horizontalStack=0;resizeParent=1;resizeParentMax=0;resizeLast=0;collapsible=1;marginBottom=0;fixDash=1;container=1;enumerate=0;treeMoving=1;swimlaneBody=1;fillOpacity=100;strokeOpacity=100;overflow=visible;rounded=1;swimlaneLine=1;sketch=0;shadow=0;arcSize=9;fillColor=#dae8fc;strokeColor=#6c8ebf;strokeWidth=1;fillStyle=auto;swimlaneFillColor=default;metaEdit=1;labelPadding=0;cloneable=1;separatorColor=none;swimlaneHead=1;noLabel=0;direction=east;portConstraint=none;portConstraintRotation=0;rotation=0;connectable=1;snapToPoint=0;perimeter=rectanglePerimeter;dropTarget=1;expand=1;part=1;backgroundOutline=1;movableLabel=1;autosize=1;fixedWidth=0;resizable=1;resizeWidth=0;resizeHeight=0;rotatable=1;treeFolding=0;pointerEvents=1;moveCells=0;comic=0;enumerateValue=123;allowArrows=0;glass=0;fontFamily=Helvetica;fontSize=13;" parent="1" vertex="1"><mxGeometry x="-1590" y="480" width="542" height="210" as="geometry"><mxRectangle x="70" y="410" width="250" height="50" as="alternateBounds"/></mxGeometry></mxCell></object><object label="%fieldModify% %fieldName%: %fieldType%    #%fieldDesc%" placeholders="1" shapeType="FIELD" fieldName="id" fieldType="Long" fieldModify="-" fieldDesc="项目id" id="333"><mxCell style="text;strokeColor=none;fillColor=none;align=left;verticalAlign=top;spacingLeft=4;spacingRight=4;overflow=hidden;rotatable=0;points=[];portConstraint=none;metaEdit=1;cloneable=1;rotation=0;connectable=1;container=0;dropTarget=1;imageAspect=1;absoluteArcSize=0;portConstraintRotation=0;snapToPoint=0;fixDash=0;pointerEvents=0;enumerate=0;resizeHeight=1;resizeWidth=1;autosize=1;part=1;movable=1;rounded=0;fontFamily=Helvetica;fontSize=13;fontColor=default;" parent="332" vertex="1"><mxGeometry y="55" width="542" height="22" as="geometry"/></mxCell></object><object label="%fieldModify% %fieldName%: %fieldType%    #%fieldDesc%" placeholders="1" shapeType="FIELD" fieldName="userId" fieldType="Long" fieldModify="-" fieldDesc="所属用户" id="334"><mxCell style="text;strokeColor=none;fillColor=none;align=left;verticalAlign=top;spacingLeft=4;spacingRight=4;overflow=hidden;rotatable=0;points=[];portConstraint=none;metaEdit=1;cloneable=1;rotation=0;connectable=1;container=0;dropTarget=1;imageAspect=1;absoluteArcSize=0;portConstraintRotation=0;snapToPoint=0;fixDash=0;pointerEvents=0;enumerate=0;resizeHeight=1;resizeWidth=1;autosize=1;part=1;movable=1;rounded=0;fontFamily=Helvetica;fontSize=13;fontColor=default;" parent="332" vertex="1"><mxGeometry y="77" width="542" height="20" as="geometry"/></mxCell></object><object label="%fieldModify% %fieldName%: %fieldType%    #%fieldDesc%" placeholders="1" shapeType="FIELD" fieldName="projectName" fieldType="String" fieldModify="-" fieldDesc="项目名" id="335"><mxCell style="text;strokeColor=none;fillColor=none;align=left;verticalAlign=top;spacingLeft=4;spacingRight=4;overflow=hidden;rotatable=0;points=[];portConstraint=none;metaEdit=1;cloneable=1;rotation=0;connectable=1;container=0;dropTarget=1;imageAspect=1;absoluteArcSize=0;portConstraintRotation=0;snapToPoint=0;fixDash=0;pointerEvents=0;enumerate=0;resizeHeight=1;resizeWidth=1;autosize=1;part=1;movable=1;rounded=0;fontFamily=Helvetica;fontSize=13;fontColor=default;" parent="332" vertex="1"><mxGeometry y="97" width="542" height="20" as="geometry"/></mxCell></object><object label="%fieldModify% %fieldName%: %fieldType%    #%fieldDesc%" placeholders="1" shapeType="FIELD" fieldName="projectDesc" fieldType="String" fieldModify="-" fieldDesc="项目描述" id="336"><mxCell style="text;strokeColor=none;fillColor=none;align=left;verticalAlign=top;spacingLeft=4;spacingRight=4;overflow=hidden;rotatable=0;points=[];portConstraint=none;metaEdit=1;cloneable=1;rotation=0;connectable=1;container=0;dropTarget=1;imageAspect=1;absoluteArcSize=0;portConstraintRotation=0;snapToPoint=0;fixDash=0;pointerEvents=0;enumerate=0;resizeHeight=1;resizeWidth=1;autosize=1;part=1;movable=1;rounded=0;fontFamily=Helvetica;fontSize=13;fontColor=default;" parent="332" vertex="1"><mxGeometry y="117" width="542" height="20" as="geometry"/></mxCell></object><object label="%fieldModify% %fieldName%: %fieldType%    #%fieldDesc%" placeholders="1" shapeType="FIELD" fieldName="projectVersion" fieldType="String" fieldModify="-" fieldDesc="项目版本号" id="337"><mxCell style="text;strokeColor=none;fillColor=none;align=left;verticalAlign=top;spacingLeft=4;spacingRight=4;overflow=hidden;rotatable=0;points=[];portConstraint=none;metaEdit=1;cloneable=1;rotation=0;connectable=1;container=0;dropTarget=1;imageAspect=1;absoluteArcSize=0;portConstraintRotation=0;snapToPoint=0;fixDash=0;pointerEvents=0;enumerate=0;resizeHeight=1;resizeWidth=1;autosize=1;part=1;movable=1;rounded=0;fontFamily=Helvetica;fontSize=13;fontColor=default;" parent="332" vertex="1"><mxGeometry y="137" width="542" height="20" as="geometry"/></mxCell></object><object label="%fieldModify% %fieldName%: %fieldType%    #%fieldDesc%" placeholders="1" shapeType="FIELD" fieldName="projectAuthor" fieldType="String" fieldModify="-" fieldDesc="项目作者" id="338"><mxCell style="text;strokeColor=none;fillColor=none;align=left;verticalAlign=top;spacingLeft=4;spacingRight=4;overflow=hidden;rotatable=0;points=[];portConstraint=none;metaEdit=1;cloneable=1;rotation=0;connectable=1;container=0;dropTarget=1;imageAspect=1;absoluteArcSize=0;portConstraintRotation=0;snapToPoint=0;fixDash=0;pointerEvents=0;enumerate=0;resizeHeight=1;resizeWidth=1;autosize=1;part=1;movable=1;rounded=0;fontFamily=Helvetica;fontSize=13;fontColor=default;" parent="332" vertex="1"><mxGeometry y="157" width="542" height="25" as="geometry"/></mxCell></object><object label="%fieldModify% %fieldName%: %fieldType%    #%fieldDesc%" placeholders="1" shapeType="FIELD" fieldName="packagePath" fieldType="String" fieldModify="-" fieldDesc="包路径" id="339"><mxCell style="text;strokeColor=none;fillColor=none;align=left;verticalAlign=top;spacingLeft=4;spacingRight=4;overflow=hidden;rotatable=0;points=[];portConstraint=none;metaEdit=1;cloneable=1;rotation=0;connectable=1;container=0;dropTarget=1;imageAspect=1;absoluteArcSize=0;portConstraintRotation=0;snapToPoint=0;fixDash=0;pointerEvents=0;enumerate=0;resizeHeight=1;resizeWidth=1;autosize=1;part=1;movable=1;rounded=0;fontFamily=Helvetica;fontSize=13;fontColor=default;" parent="332" vertex="1"><mxGeometry y="182" width="542" height="20" as="geometry"/></mxCell></object><mxCell id="340" value="" style="line;strokeWidth=1;fillColor=none;align=left;verticalAlign=middle;spacingTop=-1;spacingLeft=3;spacingRight=3;rotatable=0;labelPosition=right;points=[];portConstraint=eastwest;cloneable=1;rounded=0;part=1;fontFamily=Helvetica;fontSize=13;fontColor=default;" parent="332" vertex="1"><mxGeometry y="202" width="542" height="8" as="geometry"/></mxCell><object label="《%shapeType%》&#10;%className%&#10;%classDesc%" placeholders="1" shapeType="AGGREGATION" className="DomainChart" classDesc="领域图谱" id="341"><mxCell style="swimlane;fontStyle=3;align=center;verticalAlign=top;childLayout=stackLayout;horizontal=1;startSize=55;horizontalStack=0;resizeParent=1;resizeParentMax=0;resizeLast=0;collapsible=1;marginBottom=0;fixDash=1;container=1;enumerate=0;treeMoving=1;swimlaneBody=1;fillOpacity=100;strokeOpacity=100;overflow=visible;rounded=1;swimlaneLine=1;sketch=0;shadow=0;arcSize=7;fillColor=#fff2cc;strokeColor=#d6b656;strokeWidth=1;fillStyle=auto;swimlaneFillColor=default;metaEdit=1;labelPadding=0;cloneable=1;separatorColor=none;swimlaneHead=1;noLabel=0;direction=east;portConstraint=none;portConstraintRotation=0;rotation=0;connectable=1;snapToPoint=0;perimeter=rectanglePerimeter;dropTarget=1;expand=1;part=1;backgroundOutline=1;movableLabel=1;autosize=1;fixedWidth=0;resizable=1;resizeWidth=0;resizeHeight=0;rotatable=1;treeFolding=0;pointerEvents=1;moveCells=0;comic=0;enumerateValue=123;allowArrows=0;glass=0;fontFamily=Helvetica;fontSize=13;fontColor=default;" parent="1" vertex="1"><mxGeometry x="-980" y="480" width="343" height="200" as="geometry"><mxRectangle x="70" y="410" width="250" height="50" as="alternateBounds"/></mxGeometry></mxCell></object><object label="%fieldModify% %fieldName%: %fieldType%    #%fieldDesc%" placeholders="1" shapeType="FIELD" fieldName="id" fieldType="Long" fieldModify="-" fieldDesc="领域图谱id" id="342"><mxCell style="text;strokeColor=none;fillColor=none;align=left;verticalAlign=top;spacingLeft=4;spacingRight=4;overflow=hidden;rotatable=0;points=[];portConstraint=none;metaEdit=1;cloneable=1;rotation=0;connectable=1;container=0;dropTarget=1;imageAspect=1;absoluteArcSize=0;portConstraintRotation=0;snapToPoint=0;fixDash=0;pointerEvents=0;enumerate=0;resizeHeight=1;resizeWidth=1;autosize=1;part=1;movable=1;rounded=0;fontFamily=Helvetica;fontSize=13;fontColor=default;" parent="341" vertex="1"><mxGeometry y="55" width="343" height="23" as="geometry"/></mxCell></object><object label="%fieldModify% %fieldName%: %fieldType%    #%fieldDesc%" placeholders="1" shapeType="FIELD" fieldName="projectId" fieldType="Long" fieldModify="-" fieldDesc="项目id" id="343"><mxCell style="text;strokeColor=none;fillColor=none;align=left;verticalAlign=top;spacingLeft=4;spacingRight=4;overflow=hidden;rotatable=0;points=[];portConstraint=none;metaEdit=1;cloneable=1;rotation=0;connectable=1;container=0;dropTarget=1;imageAspect=1;absoluteArcSize=0;portConstraintRotation=0;snapToPoint=0;fixDash=0;pointerEvents=0;enumerate=0;resizeHeight=1;resizeWidth=1;autosize=1;part=1;movable=1;rounded=0;fontFamily=Helvetica;fontSize=13;fontColor=default;" parent="341" vertex="1"><mxGeometry y="78" width="343" height="22" as="geometry"/></mxCell></object><object label="%fieldModify% %fieldName%: %fieldType%    #%fieldDesc%" placeholders="1" shapeType="FIELD" fieldName="domainName" fieldType="String" fieldModify="-" fieldDesc="领域名" id="344"><mxCell style="text;strokeColor=none;fillColor=none;align=left;verticalAlign=top;spacingLeft=4;spacingRight=4;overflow=hidden;rotatable=0;points=[];portConstraint=none;metaEdit=1;cloneable=1;rotation=0;connectable=1;container=0;dropTarget=1;imageAspect=1;absoluteArcSize=0;portConstraintRotation=0;snapToPoint=0;fixDash=0;pointerEvents=0;enumerate=0;resizeHeight=1;resizeWidth=1;autosize=1;part=1;movable=1;rounded=0;fontFamily=Helvetica;fontSize=13;fontColor=default;" parent="341" vertex="1"><mxGeometry y="100" width="343" height="20" as="geometry"/></mxCell></object><object label="%fieldModify% %fieldName%: %fieldType%    #%fieldDesc%" placeholders="1" shapeType="FIELD" fieldName="domainDesc" fieldType="String" fieldModify="-" fieldDesc="领域描述" id="345"><mxCell style="text;strokeColor=none;fillColor=none;align=left;verticalAlign=top;spacingLeft=4;spacingRight=4;overflow=hidden;rotatable=0;points=[];portConstraint=none;metaEdit=1;cloneable=1;rotation=0;connectable=1;container=0;dropTarget=1;imageAspect=1;absoluteArcSize=0;portConstraintRotation=0;snapToPoint=0;fixDash=0;pointerEvents=0;enumerate=0;resizeHeight=1;resizeWidth=1;autosize=1;part=1;movable=1;rounded=0;fontFamily=Helvetica;fontSize=13;fontColor=default;" parent="341" vertex="1"><mxGeometry y="120" width="343" height="27" as="geometry"/></mxCell></object><object label="%fieldModify% %fieldName%: %fieldType%    #%fieldDesc%" placeholders="1" shapeType="FIELD" fieldName="chartXmlFileKey" fieldType="String" fieldModify="-" fieldDesc="图谱xml云文件key" id="346"><mxCell style="text;strokeColor=none;fillColor=none;align=left;verticalAlign=top;spacingLeft=4;spacingRight=4;overflow=hidden;rotatable=0;points=[];portConstraint=none;metaEdit=1;cloneable=1;rotation=0;connectable=1;container=0;dropTarget=1;imageAspect=1;absoluteArcSize=0;portConstraintRotation=0;snapToPoint=0;fixDash=0;pointerEvents=0;enumerate=0;resizeHeight=1;resizeWidth=1;autosize=1;part=1;movable=1;rounded=0;fontFamily=Helvetica;fontSize=13;fontColor=default;" parent="341" vertex="1"><mxGeometry y="147" width="343" height="25" as="geometry"/></mxCell></object><object label="%fieldModify% %fieldName%: %fieldType%    #%fieldDesc%" placeholders="1" shapeType="FIELD" fieldName="domainAuthor" fieldType="String" fieldModify="-" fieldDesc="领域作者" id="347"><mxCell style="text;strokeColor=none;fillColor=none;align=left;verticalAlign=top;spacingLeft=4;spacingRight=4;overflow=hidden;rotatable=0;points=[];portConstraint=none;metaEdit=1;cloneable=1;rotation=0;connectable=1;container=0;dropTarget=1;imageAspect=1;absoluteArcSize=0;portConstraintRotation=0;snapToPoint=0;fixDash=0;pointerEvents=0;enumerate=0;resizeHeight=1;resizeWidth=1;autosize=1;part=1;movable=1;rounded=0;fontFamily=Helvetica;fontSize=13;fontColor=default;" parent="341" vertex="1"><mxGeometry y="172" width="343" height="28" as="geometry"/></mxCell></object><object label="《%shapeType%》&#10;%className%&#10;%classDesc%" placeholders="1" shapeType="COMMAND" classPackage="create" classDesc="新增项目信息" className="projectCreate" cmdType="ADD" id="348"><mxCell style="swimlane;fontStyle=1;align=center;verticalAlign=top;childLayout=stackLayout;horizontal=1;startSize=60;horizontalStack=0;resizeParent=1;resizeParentMax=0;resizeLast=0;collapsible=1;marginBottom=0;fixDash=1;container=1;enumerate=0;treeMoving=1;swimlaneBody=1;fillOpacity=100;strokeOpacity=100;overflow=visible;rounded=0;swimlaneLine=1;sketch=0;shadow=0;arcSize=9;strokeWidth=1;fillStyle=auto;swimlaneFillColor=default;metaEdit=1;labelPadding=0;cloneable=1;separatorColor=none;swimlaneHead=1;noLabel=0;direction=east;portConstraint=none;portConstraintRotation=0;rotation=0;connectable=0;snapToPoint=0;perimeter=rectanglePerimeter;dropTarget=1;expand=1;part=1;backgroundOutline=1;movableLabel=1;autosize=1;fixedWidth=1;resizable=1;resizeWidth=0;resizeHeight=0;rotatable=1;treeFolding=0;pointerEvents=1;moveCells=0;comic=0;enumerateValue=123;allowArrows=0;fontFamily=Helvetica;fontSize=13;fillColor=#dae8fc;strokeColor=#6c8ebf;" parent="1" vertex="1"><mxGeometry x="-330" y="451" width="350" height="308" as="geometry"><mxRectangle x="-950" y="80" width="350" height="70" as="alternateBounds"/></mxGeometry></mxCell></object><object label="%fieldModify% %fieldName%: %fieldType%    #%fieldDesc%" placeholders="1" shapeType="FIELD" fieldName="userId" fieldType="Long" fieldModify="-" fieldDesc="所属用户" id="349"><mxCell style="text;strokeColor=none;fillColor=none;align=left;verticalAlign=top;spacingLeft=4;spacingRight=4;overflow=hidden;rotatable=0;points=[];portConstraint=none;metaEdit=1;cloneable=1;rotation=0;connectable=1;container=0;dropTarget=1;imageAspect=1;absoluteArcSize=0;portConstraintRotation=0;snapToPoint=0;fixDash=0;pointerEvents=0;enumerate=0;resizeHeight=1;resizeWidth=1;autosize=1;part=1;movable=1;rounded=0;fontFamily=Helvetica;fontSize=13;fontColor=default;" parent="348" vertex="1"><mxGeometry y="60" width="350" height="20" as="geometry"/></mxCell></object><object label="%fieldModify% %fieldName%: %fieldType%    #%fieldDesc%" placeholders="1" shapeType="FIELD" fieldName="projectAuthor" fieldType="String" fieldModify="-" fieldDesc="项目作者" id="350"><mxCell style="text;strokeColor=none;fillColor=none;align=left;verticalAlign=top;spacingLeft=4;spacingRight=4;overflow=hidden;rotatable=0;points=[];portConstraint=none;metaEdit=1;cloneable=1;rotation=0;connectable=1;container=0;dropTarget=1;imageAspect=1;absoluteArcSize=0;portConstraintRotation=0;snapToPoint=0;fixDash=0;pointerEvents=0;enumerate=0;resizeHeight=1;resizeWidth=1;autosize=1;part=1;movable=1;rounded=0;fontFamily=Helvetica;fontSize=13;fontColor=default;" parent="348" vertex="1"><mxGeometry y="80" width="350" height="22" as="geometry"/></mxCell></object><object label="%fieldModify% %fieldName%: %fieldType%    #%fieldDesc%" placeholders="1" shapeType="FIELD" fieldName="projectVersion" fieldType="String" fieldModify="-" fieldDesc="项目版本号" id="351"><mxCell style="text;strokeColor=none;fillColor=none;align=left;verticalAlign=top;spacingLeft=4;spacingRight=4;overflow=hidden;rotatable=0;points=[];portConstraint=none;metaEdit=1;cloneable=1;rotation=0;connectable=1;container=0;dropTarget=1;imageAspect=1;absoluteArcSize=0;portConstraintRotation=0;snapToPoint=0;fixDash=0;pointerEvents=0;enumerate=0;resizeHeight=1;resizeWidth=1;autosize=1;part=1;movable=1;rounded=0;fontFamily=Helvetica;fontSize=13;fontColor=default;" parent="348" vertex="1"><mxGeometry y="102" width="350" height="21" as="geometry"/></mxCell></object><object label="%fieldModify% %fieldName%: %fieldType%    #%fieldDesc%" placeholders="1" shapeType="FIELD" fieldName="packagePath" fieldType="String" fieldModify="-" fieldDesc="包路径" id="352"><mxCell style="text;strokeColor=none;fillColor=none;align=left;verticalAlign=top;spacingLeft=4;spacingRight=4;overflow=hidden;rotatable=0;points=[];portConstraint=none;metaEdit=1;cloneable=1;rotation=0;connectable=1;container=0;dropTarget=1;imageAspect=1;absoluteArcSize=0;portConstraintRotation=0;snapToPoint=0;fixDash=0;pointerEvents=0;enumerate=0;resizeHeight=1;resizeWidth=1;autosize=1;part=1;movable=1;rounded=0;fontFamily=Helvetica;fontSize=13;fontColor=default;" parent="348" vertex="1"><mxGeometry y="123" width="350" height="20" as="geometry"/></mxCell></object><object label="%fieldModify% %fieldName%: %fieldType%    #%fieldDesc%" placeholders="1" shapeType="FIELD" fieldName="projectDesc" fieldType="String" fieldModify="-" fieldDesc="项目描述" id="353"><mxCell style="text;strokeColor=none;fillColor=none;align=left;verticalAlign=top;spacingLeft=4;spacingRight=4;overflow=hidden;rotatable=0;points=[];portConstraint=none;metaEdit=1;cloneable=1;rotation=0;connectable=1;container=0;dropTarget=1;imageAspect=1;absoluteArcSize=0;portConstraintRotation=0;snapToPoint=0;fixDash=0;pointerEvents=0;enumerate=0;resizeHeight=1;resizeWidth=1;autosize=1;part=1;movable=1;rounded=0;fontFamily=Helvetica;fontSize=13;fontColor=default;" parent="348" vertex="1"><mxGeometry y="143" width="350" height="20" as="geometry"/></mxCell></object><object label="%fieldModify% %fieldName%: %fieldType%    #%fieldDesc%" placeholders="1" shapeType="FIELD" fieldName="projectName" fieldType="String" fieldModify="-" fieldDesc="项目名" id="354"><mxCell style="text;strokeColor=none;fillColor=none;align=left;verticalAlign=top;spacingLeft=4;spacingRight=4;overflow=hidden;rotatable=0;points=[];portConstraint=none;metaEdit=1;cloneable=1;rotation=0;connectable=1;container=0;dropTarget=1;imageAspect=1;absoluteArcSize=0;portConstraintRotation=0;snapToPoint=0;fixDash=0;pointerEvents=0;enumerate=0;resizeHeight=1;resizeWidth=1;autosize=1;part=1;movable=1;rounded=0;fontFamily=Helvetica;fontSize=13;fontColor=default;" parent="348" vertex="1"><mxGeometry y="163" width="350" height="27" as="geometry"/></mxCell></object><object label="《%shapeType%》" placeholders="1" shapeType="RULE_LIST" id="355"><mxCell style="swimlane;fontStyle=1;align=center;verticalAlign=top;childLayout=stackLayout;horizontal=1;startSize=28;horizontalStack=0;resizeParent=1;resizeParentMax=0;resizeLast=0;collapsible=1;marginBottom=0;fixDash=1;container=1;enumerate=0;treeMoving=1;swimlaneBody=1;fillOpacity=100;strokeOpacity=100;overflow=visible;rounded=0;swimlaneLine=1;sketch=0;shadow=0;arcSize=19;strokeWidth=1;fillStyle=auto;swimlaneFillColor=none;metaEdit=1;labelPadding=0;cloneable=1;separatorColor=none;swimlaneHead=1;noLabel=0;direction=east;portConstraint=none;portConstraintRotation=0;rotation=0;connectable=0;snapToPoint=0;perimeter=rectanglePerimeter;dropTarget=1;expand=1;part=1;backgroundOutline=1;movableLabel=1;autosize=1;fixedWidth=0;resizable=1;resizeWidth=0;resizeHeight=0;rotatable=1;treeFolding=0;pointerEvents=1;moveCells=0;comic=0;enumerateValue=123;allowArrows=0;fontFamily=Helvetica;fontSize=13;glass=0;editable=1;movable=1;deletable=1;fillColor=none;strokeColor=#b85450;gradientColor=none;" parent="348" vertex="1"><mxGeometry y="190" width="350" height="58" as="geometry"><mxRectangle y="256" width="420" height="50" as="alternateBounds"/></mxGeometry></mxCell></object><object label="rule: %ruleDesc%" placeholders="1" shapeType="RULE_ITEM" ruleDesc="规则描述" id="356"><mxCell style="text;strokeColor=none;fillColor=none;align=left;verticalAlign=top;spacingLeft=4;spacingRight=4;overflow=hidden;rotatable=0;points=[];portConstraint=none;metaEdit=1;cloneable=1;rotation=0;connectable=1;container=0;dropTarget=1;imageAspect=1;absoluteArcSize=0;portConstraintRotation=0;snapToPoint=0;fixDash=0;pointerEvents=0;enumerate=0;resizeHeight=1;resizeWidth=1;autosize=1;part=1;movable=1;rounded=0;fontFamily=Helvetica;fontSize=13;fontColor=default;" parent="355" vertex="1"><mxGeometry y="28" width="350" height="30" as="geometry"/></mxCell></object><object label="《%shapeType%》" placeholders="1" shapeType="EVENT" id="357"><mxCell style="swimlane;fontStyle=1;align=center;verticalAlign=top;childLayout=stackLayout;horizontal=1;startSize=28;horizontalStack=0;resizeParent=1;resizeParentMax=0;resizeLast=0;collapsible=1;marginBottom=0;fixDash=1;container=1;enumerate=0;treeMoving=1;swimlaneBody=1;fillOpacity=100;strokeOpacity=100;overflow=visible;rounded=0;swimlaneLine=1;sketch=0;shadow=0;arcSize=19;strokeWidth=1;fillStyle=auto;swimlaneFillColor=none;metaEdit=1;labelPadding=0;cloneable=1;separatorColor=none;swimlaneHead=1;noLabel=0;direction=east;portConstraint=none;portConstraintRotation=0;rotation=0;connectable=0;snapToPoint=0;perimeter=rectanglePerimeter;dropTarget=1;expand=1;part=1;backgroundOutline=1;movableLabel=1;autosize=1;fixedWidth=0;resizable=1;resizeWidth=0;resizeHeight=0;rotatable=1;treeFolding=0;pointerEvents=1;moveCells=0;comic=0;enumerateValue=123;allowArrows=0;fontFamily=Helvetica;fontSize=13;glass=0;editable=1;movable=1;deletable=1;fillColor=none;strokeColor=#6c8ebf;gradientColor=#7ea6e0;" parent="348" vertex="1"><mxGeometry y="248" width="350" height="60" as="geometry"><mxRectangle y="204" width="420" height="50" as="alternateBounds"/></mxGeometry></mxCell></object><object label="%fieldModify% %fieldName%: %fieldType%    #%fieldDesc%" placeholders="1" shapeType="FIELD" fieldName="id" fieldType="Long" fieldModify="-" fieldDesc="项目id" id="358"><mxCell style="text;strokeColor=none;fillColor=none;align=left;verticalAlign=top;spacingLeft=4;spacingRight=4;overflow=hidden;rotatable=0;points=[];portConstraint=none;metaEdit=1;cloneable=1;rotation=0;connectable=1;container=0;dropTarget=1;imageAspect=1;absoluteArcSize=0;portConstraintRotation=0;snapToPoint=0;fixDash=0;pointerEvents=0;enumerate=0;resizeHeight=1;resizeWidth=1;autosize=1;part=1;movable=1;rounded=0;fontFamily=Helvetica;fontSize=13;fontColor=default;" parent="357" vertex="1"><mxGeometry y="28" width="350" height="32" as="geometry"/></mxCell></object><object label="《%shapeType%》&#10;%className%&#10;%classDesc%" placeholders="1" shapeType="COMMAND" classPackage="update" classDesc="更新项目信息" className="projectUpdate" cmdType="UPDATE" id="359"><mxCell style="swimlane;fontStyle=1;align=center;verticalAlign=top;childLayout=stackLayout;horizontal=1;startSize=60;horizontalStack=0;resizeParent=1;resizeParentMax=0;resizeLast=0;collapsible=1;marginBottom=0;fixDash=1;container=1;enumerate=0;treeMoving=1;swimlaneBody=1;fillOpacity=100;strokeOpacity=100;overflow=visible;rounded=0;swimlaneLine=1;sketch=0;shadow=0;arcSize=9;strokeWidth=1;fillStyle=auto;swimlaneFillColor=default;metaEdit=1;labelPadding=0;cloneable=1;separatorColor=none;swimlaneHead=1;noLabel=0;direction=east;portConstraint=none;portConstraintRotation=0;rotation=0;connectable=0;snapToPoint=0;perimeter=rectanglePerimeter;dropTarget=1;expand=1;part=1;backgroundOutline=1;movableLabel=1;autosize=1;fixedWidth=1;resizable=1;resizeWidth=0;resizeHeight=0;rotatable=1;treeFolding=0;pointerEvents=1;moveCells=0;comic=0;enumerateValue=123;allowArrows=0;fontFamily=Helvetica;fontSize=13;fillColor=#dae8fc;strokeColor=#6c8ebf;" parent="1" vertex="1"><mxGeometry x="70" y="450" width="350" height="323" as="geometry"><mxRectangle x="-950" y="80" width="350" height="70" as="alternateBounds"/></mxGeometry></mxCell></object><object label="%fieldModify% %fieldName%: %fieldType%    #%fieldDesc%" placeholders="1" shapeType="FIELD" fieldName="id" fieldType="Long" fieldModify="-" fieldDesc="项目id" id="360"><mxCell style="text;strokeColor=none;fillColor=none;align=left;verticalAlign=top;spacingLeft=4;spacingRight=4;overflow=hidden;rotatable=0;points=[];portConstraint=none;metaEdit=1;cloneable=1;rotation=0;connectable=1;container=0;dropTarget=1;imageAspect=1;absoluteArcSize=0;portConstraintRotation=0;snapToPoint=0;fixDash=0;pointerEvents=0;enumerate=0;resizeHeight=1;resizeWidth=1;autosize=1;part=1;movable=1;rounded=0;fontFamily=Helvetica;fontSize=13;fontColor=default;" parent="359" vertex="1"><mxGeometry y="60" width="350" height="20" as="geometry"/></mxCell></object><object label="%fieldModify% %fieldName%: %fieldType%    #%fieldDesc%" placeholders="1" shapeType="FIELD" fieldName="userId" fieldType="Long" fieldModify="-" fieldDesc="所属用户" id="361"><mxCell style="text;strokeColor=none;fillColor=none;align=left;verticalAlign=top;spacingLeft=4;spacingRight=4;overflow=hidden;rotatable=0;points=[];portConstraint=none;metaEdit=1;cloneable=1;rotation=0;connectable=1;container=0;dropTarget=1;imageAspect=1;absoluteArcSize=0;portConstraintRotation=0;snapToPoint=0;fixDash=0;pointerEvents=0;enumerate=0;resizeHeight=1;resizeWidth=1;autosize=1;part=1;movable=1;rounded=0;fontFamily=Helvetica;fontSize=13;fontColor=default;" parent="359" vertex="1"><mxGeometry y="80" width="350" height="22" as="geometry"/></mxCell></object><object label="%fieldModify% %fieldName%: %fieldType%    #%fieldDesc%" placeholders="1" shapeType="FIELD" fieldName="projectName" fieldType="String" fieldModify="-" fieldDesc="项目名" id="362"><mxCell style="text;strokeColor=none;fillColor=none;align=left;verticalAlign=top;spacingLeft=4;spacingRight=4;overflow=hidden;rotatable=0;points=[];portConstraint=none;metaEdit=1;cloneable=1;rotation=0;connectable=1;container=0;dropTarget=1;imageAspect=1;absoluteArcSize=0;portConstraintRotation=0;snapToPoint=0;fixDash=0;pointerEvents=0;enumerate=0;resizeHeight=1;resizeWidth=1;autosize=1;part=1;movable=1;rounded=0;fontFamily=Helvetica;fontSize=13;fontColor=default;" parent="359" vertex="1"><mxGeometry y="102" width="350" height="20" as="geometry"/></mxCell></object><object label="%fieldModify% %fieldName%: %fieldType%    #%fieldDesc%" placeholders="1" shapeType="FIELD" fieldName="projectAuthor" fieldType="String" fieldModify="-" fieldDesc="项目作者" id="363"><mxCell style="text;strokeColor=none;fillColor=none;align=left;verticalAlign=top;spacingLeft=4;spacingRight=4;overflow=hidden;rotatable=0;points=[];portConstraint=none;metaEdit=1;cloneable=1;rotation=0;connectable=1;container=0;dropTarget=1;imageAspect=1;absoluteArcSize=0;portConstraintRotation=0;snapToPoint=0;fixDash=0;pointerEvents=0;enumerate=0;resizeHeight=1;resizeWidth=1;autosize=1;part=1;movable=1;rounded=0;fontFamily=Helvetica;fontSize=13;fontColor=default;" parent="359" vertex="1"><mxGeometry y="122" width="350" height="20" as="geometry"/></mxCell></object><object label="%fieldModify% %fieldName%: %fieldType%    #%fieldDesc%" placeholders="1" shapeType="FIELD" fieldName="projectDesc" fieldType="String" fieldModify="-" fieldDesc="项目描述" id="364"><mxCell style="text;strokeColor=none;fillColor=none;align=left;verticalAlign=top;spacingLeft=4;spacingRight=4;overflow=hidden;rotatable=0;points=[];portConstraint=none;metaEdit=1;cloneable=1;rotation=0;connectable=1;container=0;dropTarget=1;imageAspect=1;absoluteArcSize=0;portConstraintRotation=0;snapToPoint=0;fixDash=0;pointerEvents=0;enumerate=0;resizeHeight=1;resizeWidth=1;autosize=1;part=1;movable=1;rounded=0;fontFamily=Helvetica;fontSize=13;fontColor=default;" parent="359" vertex="1"><mxGeometry y="142" width="350" height="21" as="geometry"/></mxCell></object><object label="%fieldModify% %fieldName%: %fieldType%    #%fieldDesc%" placeholders="1" shapeType="FIELD" fieldName="projectVersion" fieldType="String" fieldModify="-" fieldDesc="项目版本号" id="365"><mxCell style="text;strokeColor=none;fillColor=none;align=left;verticalAlign=top;spacingLeft=4;spacingRight=4;overflow=hidden;rotatable=0;points=[];portConstraint=none;metaEdit=1;cloneable=1;rotation=0;connectable=1;container=0;dropTarget=1;imageAspect=1;absoluteArcSize=0;portConstraintRotation=0;snapToPoint=0;fixDash=0;pointerEvents=0;enumerate=0;resizeHeight=1;resizeWidth=1;autosize=1;part=1;movable=1;rounded=0;fontFamily=Helvetica;fontSize=13;fontColor=default;" parent="359" vertex="1"><mxGeometry y="163" width="350" height="22" as="geometry"/></mxCell></object><object label="%fieldModify% %fieldName%: %fieldType%    #%fieldDesc%" placeholders="1" shapeType="FIELD" fieldName="packagePath" fieldType="String" fieldModify="-" fieldDesc="包路径" id="366"><mxCell style="text;strokeColor=none;fillColor=none;align=left;verticalAlign=top;spacingLeft=4;spacingRight=4;overflow=hidden;rotatable=0;points=[];portConstraint=none;metaEdit=1;cloneable=1;rotation=0;connectable=1;container=0;dropTarget=1;imageAspect=1;absoluteArcSize=0;portConstraintRotation=0;snapToPoint=0;fixDash=0;pointerEvents=0;enumerate=0;resizeHeight=1;resizeWidth=1;autosize=1;part=1;movable=1;rounded=0;fontFamily=Helvetica;fontSize=13;fontColor=default;" parent="359" vertex="1"><mxGeometry y="185" width="350" height="28" as="geometry"/></mxCell></object><object label="《%shapeType%》" placeholders="1" shapeType="RULE_LIST" id="367"><mxCell style="swimlane;fontStyle=1;align=center;verticalAlign=top;childLayout=stackLayout;horizontal=1;startSize=28;horizontalStack=0;resizeParent=1;resizeParentMax=0;resizeLast=0;collapsible=1;marginBottom=0;fixDash=1;container=1;enumerate=0;treeMoving=1;swimlaneBody=1;fillOpacity=100;strokeOpacity=100;overflow=visible;rounded=0;swimlaneLine=1;sketch=0;shadow=0;arcSize=19;strokeWidth=1;fillStyle=auto;swimlaneFillColor=none;metaEdit=1;labelPadding=0;cloneable=1;separatorColor=none;swimlaneHead=1;noLabel=0;direction=east;portConstraint=none;portConstraintRotation=0;rotation=0;connectable=0;snapToPoint=0;perimeter=rectanglePerimeter;dropTarget=1;expand=1;part=1;backgroundOutline=1;movableLabel=1;autosize=1;fixedWidth=0;resizable=1;resizeWidth=0;resizeHeight=0;rotatable=1;treeFolding=0;pointerEvents=1;moveCells=0;comic=0;enumerateValue=123;allowArrows=0;fontFamily=Helvetica;fontSize=13;glass=0;editable=1;movable=1;deletable=1;fillColor=none;strokeColor=#b85450;gradientColor=none;" parent="359" vertex="1"><mxGeometry y="213" width="350" height="58" as="geometry"><mxRectangle y="256" width="420" height="50" as="alternateBounds"/></mxGeometry></mxCell></object><object label="rule: %ruleDesc%" placeholders="1" shapeType="RULE_ITEM" ruleDesc="规则描述" id="368"><mxCell style="text;strokeColor=none;fillColor=none;align=left;verticalAlign=top;spacingLeft=4;spacingRight=4;overflow=hidden;rotatable=0;points=[];portConstraint=none;metaEdit=1;cloneable=1;rotation=0;connectable=1;container=0;dropTarget=1;imageAspect=1;absoluteArcSize=0;portConstraintRotation=0;snapToPoint=0;fixDash=0;pointerEvents=0;enumerate=0;resizeHeight=1;resizeWidth=1;autosize=1;part=1;movable=1;rounded=0;fontFamily=Helvetica;fontSize=13;fontColor=default;" parent="367" vertex="1"><mxGeometry y="28" width="350" height="30" as="geometry"/></mxCell></object><object label="《%shapeType%》" placeholders="1" shapeType="EVENT" id="369"><mxCell style="swimlane;fontStyle=1;align=center;verticalAlign=top;childLayout=stackLayout;horizontal=1;startSize=28;horizontalStack=0;resizeParent=1;resizeParentMax=0;resizeLast=0;collapsible=1;marginBottom=0;fixDash=1;container=1;enumerate=0;treeMoving=1;swimlaneBody=1;fillOpacity=100;strokeOpacity=100;overflow=visible;rounded=0;swimlaneLine=1;sketch=0;shadow=0;arcSize=19;strokeWidth=1;fillStyle=auto;swimlaneFillColor=none;metaEdit=1;labelPadding=0;cloneable=1;separatorColor=none;swimlaneHead=1;noLabel=0;direction=east;portConstraint=none;portConstraintRotation=0;rotation=0;connectable=0;snapToPoint=0;perimeter=rectanglePerimeter;dropTarget=1;expand=1;part=1;backgroundOutline=1;movableLabel=1;autosize=1;fixedWidth=0;resizable=1;resizeWidth=0;resizeHeight=0;rotatable=1;treeFolding=0;pointerEvents=1;moveCells=0;comic=0;enumerateValue=123;allowArrows=0;fontFamily=Helvetica;fontSize=13;glass=0;editable=1;movable=1;deletable=1;fillColor=none;strokeColor=#6c8ebf;gradientColor=#7ea6e0;" parent="359" vertex="1"><mxGeometry y="271" width="350" height="52" as="geometry"><mxRectangle y="204" width="420" height="50" as="alternateBounds"/></mxGeometry></mxCell></object><object label="《%shapeType%》&#10;%className%&#10;%classDesc%" placeholders="1" shapeType="COMMAND" classPackage="remove" classDesc="删除项目及项目下的领域图谱" className="projectRemove" cmdType="DELETE" id="370"><mxCell style="swimlane;fontStyle=1;align=center;verticalAlign=top;childLayout=stackLayout;horizontal=1;startSize=60;horizontalStack=0;resizeParent=1;resizeParentMax=0;resizeLast=0;collapsible=1;marginBottom=0;fixDash=1;container=1;enumerate=0;treeMoving=1;swimlaneBody=1;fillOpacity=100;strokeOpacity=100;overflow=visible;rounded=0;swimlaneLine=1;sketch=0;shadow=0;arcSize=9;strokeWidth=1;fillStyle=auto;swimlaneFillColor=default;metaEdit=1;labelPadding=0;cloneable=1;separatorColor=none;swimlaneHead=1;noLabel=0;direction=east;portConstraint=none;portConstraintRotation=0;rotation=0;connectable=0;snapToPoint=0;perimeter=rectanglePerimeter;dropTarget=1;expand=1;part=1;backgroundOutline=1;movableLabel=1;autosize=1;fixedWidth=1;resizable=1;resizeWidth=0;resizeHeight=0;rotatable=1;treeFolding=0;pointerEvents=1;moveCells=0;comic=0;enumerateValue=123;allowArrows=0;fontFamily=Helvetica;fontSize=13;fillColor=#dae8fc;strokeColor=#6c8ebf;" parent="1" vertex="1"><mxGeometry x="470" y="450" width="350" height="200" as="geometry"><mxRectangle x="-950" y="80" width="350" height="70" as="alternateBounds"/></mxGeometry></mxCell></object><object label="%fieldModify% %fieldName%: %fieldType%    #%fieldDesc%" placeholders="1" shapeType="FIELD" fieldName="id" fieldType="Long" fieldModify="-" fieldDesc="项目id" id="371"><mxCell style="text;strokeColor=none;fillColor=none;align=left;verticalAlign=top;spacingLeft=4;spacingRight=4;overflow=hidden;rotatable=0;points=[];portConstraint=none;metaEdit=1;cloneable=1;rotation=0;connectable=1;container=0;dropTarget=1;imageAspect=1;absoluteArcSize=0;portConstraintRotation=0;snapToPoint=0;fixDash=0;pointerEvents=0;enumerate=0;resizeHeight=1;resizeWidth=1;autosize=1;part=1;movable=1;rounded=0;fontFamily=Helvetica;fontSize=13;fontColor=default;" parent="370" vertex="1"><mxGeometry y="60" width="350" height="30" as="geometry"/></mxCell></object><object label="《%shapeType%》" placeholders="1" shapeType="RULE_LIST" id="372"><mxCell style="swimlane;fontStyle=1;align=center;verticalAlign=top;childLayout=stackLayout;horizontal=1;startSize=28;horizontalStack=0;resizeParent=1;resizeParentMax=0;resizeLast=0;collapsible=1;marginBottom=0;fixDash=1;container=1;enumerate=0;treeMoving=1;swimlaneBody=1;fillOpacity=100;strokeOpacity=100;overflow=visible;rounded=0;swimlaneLine=1;sketch=0;shadow=0;arcSize=19;strokeWidth=1;fillStyle=auto;swimlaneFillColor=none;metaEdit=1;labelPadding=0;cloneable=1;separatorColor=none;swimlaneHead=1;noLabel=0;direction=east;portConstraint=none;portConstraintRotation=0;rotation=0;connectable=0;snapToPoint=0;perimeter=rectanglePerimeter;dropTarget=1;expand=1;part=1;backgroundOutline=1;movableLabel=1;autosize=1;fixedWidth=0;resizable=1;resizeWidth=0;resizeHeight=0;rotatable=1;treeFolding=0;pointerEvents=1;moveCells=0;comic=0;enumerateValue=123;allowArrows=0;fontFamily=Helvetica;fontSize=13;glass=0;editable=1;movable=1;deletable=1;fillColor=none;strokeColor=#b85450;gradientColor=none;" parent="370" vertex="1"><mxGeometry y="90" width="350" height="58" as="geometry"><mxRectangle y="256" width="420" height="50" as="alternateBounds"/></mxGeometry></mxCell></object><object label="rule: %ruleDesc%" placeholders="1" shapeType="RULE_ITEM" ruleDesc="同时删除项目下的领域图谱" id="373"><mxCell style="text;strokeColor=none;fillColor=none;align=left;verticalAlign=top;spacingLeft=4;spacingRight=4;overflow=hidden;rotatable=0;points=[];portConstraint=none;metaEdit=1;cloneable=1;rotation=0;connectable=1;container=0;dropTarget=1;imageAspect=1;absoluteArcSize=0;portConstraintRotation=0;snapToPoint=0;fixDash=0;pointerEvents=0;enumerate=0;resizeHeight=1;resizeWidth=1;autosize=1;part=1;movable=1;rounded=0;fontFamily=Helvetica;fontSize=13;fontColor=default;" parent="372" vertex="1"><mxGeometry y="28" width="350" height="30" as="geometry"/></mxCell></object><object label="《%shapeType%》" placeholders="1" shapeType="EVENT" id="374"><mxCell style="swimlane;fontStyle=1;align=center;verticalAlign=top;childLayout=stackLayout;horizontal=1;startSize=28;horizontalStack=0;resizeParent=1;resizeParentMax=0;resizeLast=0;collapsible=1;marginBottom=0;fixDash=1;container=1;enumerate=0;treeMoving=1;swimlaneBody=1;fillOpacity=100;strokeOpacity=100;overflow=visible;rounded=0;swimlaneLine=1;sketch=0;shadow=0;arcSize=19;strokeWidth=1;fillStyle=auto;swimlaneFillColor=none;metaEdit=1;labelPadding=0;cloneable=1;separatorColor=none;swimlaneHead=1;noLabel=0;direction=east;portConstraint=none;portConstraintRotation=0;rotation=0;connectable=0;snapToPoint=0;perimeter=rectanglePerimeter;dropTarget=1;expand=1;part=1;backgroundOutline=1;movableLabel=1;autosize=1;fixedWidth=0;resizable=1;resizeWidth=0;resizeHeight=0;rotatable=1;treeFolding=0;pointerEvents=1;moveCells=0;comic=0;enumerateValue=123;allowArrows=0;fontFamily=Helvetica;fontSize=13;glass=0;editable=1;movable=1;deletable=1;fillColor=none;strokeColor=#6c8ebf;gradientColor=#7ea6e0;" parent="370" vertex="1"><mxGeometry y="148" width="350" height="52" as="geometry"><mxRectangle y="204" width="420" height="50" as="alternateBounds"/></mxGeometry></mxCell></object><object label="《%shapeType%》&#10;%className%&#10;%classDesc%" placeholders="1" shapeType="COMMAND" classPackage="create" classDesc="创建领域图谱" className="domainChartCreate" cmdType="ADD" id="375"><mxCell style="swimlane;fontStyle=1;align=center;verticalAlign=top;childLayout=stackLayout;horizontal=1;startSize=60;horizontalStack=0;resizeParent=1;resizeParentMax=0;resizeLast=0;collapsible=1;marginBottom=0;fixDash=1;container=1;enumerate=0;treeMoving=1;swimlaneBody=1;fillOpacity=100;strokeOpacity=100;overflow=visible;rounded=0;swimlaneLine=1;sketch=0;shadow=0;arcSize=9;strokeWidth=1;fillStyle=auto;swimlaneFillColor=default;metaEdit=1;labelPadding=0;cloneable=1;separatorColor=none;swimlaneHead=1;noLabel=0;direction=east;portConstraint=none;portConstraintRotation=0;rotation=0;connectable=0;snapToPoint=0;perimeter=rectanglePerimeter;dropTarget=1;expand=1;part=1;backgroundOutline=1;movableLabel=1;autosize=1;fixedWidth=1;resizable=1;resizeWidth=0;resizeHeight=0;rotatable=1;treeFolding=0;pointerEvents=1;moveCells=0;comic=0;enumerateValue=123;allowArrows=0;fontFamily=Helvetica;fontSize=13;fillColor=#fff2cc;strokeColor=#d6b656;" parent="1" vertex="1"><mxGeometry x="1240" y="450" width="350" height="305" as="geometry"><mxRectangle x="-950" y="80" width="350" height="70" as="alternateBounds"/></mxGeometry></mxCell></object><object label="%fieldModify% %fieldName%: %fieldType%    #%fieldDesc%" placeholders="1" shapeType="FIELD" fieldName="projectId" fieldType="Long" fieldModify="-" fieldDesc="项目id" id="376"><mxCell style="text;strokeColor=none;fillColor=none;align=left;verticalAlign=top;spacingLeft=4;spacingRight=4;overflow=hidden;rotatable=0;points=[];portConstraint=none;metaEdit=1;cloneable=1;rotation=0;connectable=1;container=0;dropTarget=1;imageAspect=1;absoluteArcSize=0;portConstraintRotation=0;snapToPoint=0;fixDash=0;pointerEvents=0;enumerate=0;resizeHeight=1;resizeWidth=1;autosize=1;part=1;movable=1;rounded=0;fontFamily=Helvetica;fontSize=13;fontColor=default;" parent="375" vertex="1"><mxGeometry y="60" width="350" height="22" as="geometry"/></mxCell></object><object label="%fieldModify% %fieldName%: %fieldType%    #%fieldDesc%" placeholders="1" shapeType="FIELD" fieldName="domainName" fieldType="String" fieldModify="-" fieldDesc="领域名" id="377"><mxCell style="text;strokeColor=none;fillColor=none;align=left;verticalAlign=top;spacingLeft=4;spacingRight=4;overflow=hidden;rotatable=0;points=[];portConstraint=none;metaEdit=1;cloneable=1;rotation=0;connectable=1;container=0;dropTarget=1;imageAspect=1;absoluteArcSize=0;portConstraintRotation=0;snapToPoint=0;fixDash=0;pointerEvents=0;enumerate=0;resizeHeight=1;resizeWidth=1;autosize=1;part=1;movable=1;rounded=0;fontFamily=Helvetica;fontSize=13;fontColor=default;" parent="375" vertex="1"><mxGeometry y="82" width="350" height="25" as="geometry"/></mxCell></object><object label="%fieldModify% %fieldName%: %fieldType%    #%fieldDesc%" placeholders="1" shapeType="FIELD" fieldName="domainDesc" fieldType="String" fieldModify="-" fieldDesc="领域描述" id="378"><mxCell style="text;strokeColor=none;fillColor=none;align=left;verticalAlign=top;spacingLeft=4;spacingRight=4;overflow=hidden;rotatable=0;points=[];portConstraint=none;metaEdit=1;cloneable=1;rotation=0;connectable=1;container=0;dropTarget=1;imageAspect=1;absoluteArcSize=0;portConstraintRotation=0;snapToPoint=0;fixDash=0;pointerEvents=0;enumerate=0;resizeHeight=1;resizeWidth=1;autosize=1;part=1;movable=1;rounded=0;fontFamily=Helvetica;fontSize=13;fontColor=default;" parent="375" vertex="1"><mxGeometry y="107" width="350" height="27" as="geometry"/></mxCell></object><object label="%fieldModify% %fieldName%: %fieldType%    #%fieldDesc%" placeholders="1" shapeType="FIELD" fieldName="domainAuthor" fieldType="String" fieldModify="-" fieldDesc="领域作者" id="379"><mxCell style="text;strokeColor=none;fillColor=none;align=left;verticalAlign=top;spacingLeft=4;spacingRight=4;overflow=hidden;rotatable=0;points=[];portConstraint=none;metaEdit=1;cloneable=1;rotation=0;connectable=1;container=0;dropTarget=1;imageAspect=1;absoluteArcSize=0;portConstraintRotation=0;snapToPoint=0;fixDash=0;pointerEvents=0;enumerate=0;resizeHeight=1;resizeWidth=1;autosize=1;part=1;movable=1;rounded=0;fontFamily=Helvetica;fontSize=13;fontColor=default;" parent="375" vertex="1"><mxGeometry y="134" width="350" height="28" as="geometry"/></mxCell></object><object label="%fieldModify% %fieldName%: %fieldType%    #%fieldDesc%" placeholders="1" shapeType="FIELD" fieldName="chartXml" fieldType="String" fieldModify="-" fieldDesc="图谱xml文件内容" id="380"><mxCell style="text;strokeColor=none;fillColor=none;align=left;verticalAlign=top;spacingLeft=4;spacingRight=4;overflow=hidden;rotatable=0;points=[];portConstraint=none;metaEdit=1;cloneable=1;rotation=0;connectable=1;container=0;dropTarget=1;imageAspect=1;absoluteArcSize=0;portConstraintRotation=0;snapToPoint=0;fixDash=0;pointerEvents=0;enumerate=0;resizeHeight=1;resizeWidth=1;autosize=1;part=1;movable=1;rounded=0;fontFamily=Helvetica;fontSize=13;fontColor=default;" parent="375" vertex="1"><mxGeometry y="162" width="350" height="25" as="geometry"/></mxCell></object><object label="《%shapeType%》" placeholders="1" shapeType="RULE_LIST" id="381"><mxCell style="swimlane;fontStyle=1;align=center;verticalAlign=top;childLayout=stackLayout;horizontal=1;startSize=28;horizontalStack=0;resizeParent=1;resizeParentMax=0;resizeLast=0;collapsible=1;marginBottom=0;fixDash=1;container=1;enumerate=0;treeMoving=1;swimlaneBody=1;fillOpacity=100;strokeOpacity=100;overflow=visible;rounded=0;swimlaneLine=1;sketch=0;shadow=0;arcSize=19;strokeWidth=1;fillStyle=auto;swimlaneFillColor=none;metaEdit=1;labelPadding=0;cloneable=1;separatorColor=none;swimlaneHead=1;noLabel=0;direction=east;portConstraint=none;portConstraintRotation=0;rotation=0;connectable=0;snapToPoint=0;perimeter=rectanglePerimeter;dropTarget=1;expand=1;part=1;backgroundOutline=1;movableLabel=1;autosize=1;fixedWidth=0;resizable=1;resizeWidth=0;resizeHeight=0;rotatable=1;treeFolding=0;pointerEvents=1;moveCells=0;comic=0;enumerateValue=123;allowArrows=0;fontFamily=Helvetica;fontSize=13;glass=0;editable=1;movable=1;deletable=1;fillColor=none;strokeColor=#b85450;gradientColor=none;" parent="375" vertex="1"><mxGeometry y="187" width="350" height="58" as="geometry"><mxRectangle y="256" width="420" height="50" as="alternateBounds"/></mxGeometry></mxCell></object><object label="rule: %ruleDesc%" placeholders="1" shapeType="RULE_ITEM" ruleDesc="同时初始化领域图谱云文件" id="382"><mxCell style="text;strokeColor=none;fillColor=none;align=left;verticalAlign=top;spacingLeft=4;spacingRight=4;overflow=hidden;rotatable=0;points=[];portConstraint=none;metaEdit=1;cloneable=1;rotation=0;connectable=1;container=0;dropTarget=1;imageAspect=1;absoluteArcSize=0;portConstraintRotation=0;snapToPoint=0;fixDash=0;pointerEvents=0;enumerate=0;resizeHeight=1;resizeWidth=1;autosize=1;part=1;movable=1;rounded=0;fontFamily=Helvetica;fontSize=13;fontColor=default;" parent="381" vertex="1"><mxGeometry y="28" width="350" height="30" as="geometry"/></mxCell></object><object label="《%shapeType%》" placeholders="1" shapeType="EVENT" id="383"><mxCell style="swimlane;fontStyle=1;align=center;verticalAlign=top;childLayout=stackLayout;horizontal=1;startSize=28;horizontalStack=0;resizeParent=1;resizeParentMax=0;resizeLast=0;collapsible=1;marginBottom=0;fixDash=1;container=1;enumerate=0;treeMoving=1;swimlaneBody=1;fillOpacity=100;strokeOpacity=100;overflow=visible;rounded=0;swimlaneLine=1;sketch=0;shadow=0;arcSize=19;strokeWidth=1;fillStyle=auto;swimlaneFillColor=none;metaEdit=1;labelPadding=0;cloneable=1;separatorColor=none;swimlaneHead=1;noLabel=0;direction=east;portConstraint=none;portConstraintRotation=0;rotation=0;connectable=0;snapToPoint=0;perimeter=rectanglePerimeter;dropTarget=1;expand=1;part=1;backgroundOutline=1;movableLabel=1;autosize=1;fixedWidth=0;resizable=1;resizeWidth=0;resizeHeight=0;rotatable=1;treeFolding=0;pointerEvents=1;moveCells=0;comic=0;enumerateValue=123;allowArrows=0;fontFamily=Helvetica;fontSize=13;glass=0;editable=1;movable=1;deletable=1;fillColor=none;strokeColor=#6c8ebf;gradientColor=#7ea6e0;" parent="375" vertex="1"><mxGeometry y="245" width="350" height="60" as="geometry"><mxRectangle y="204" width="420" height="50" as="alternateBounds"/></mxGeometry></mxCell></object><object label="%fieldModify% %fieldName%: %fieldType%    #%fieldDesc%" placeholders="1" shapeType="FIELD" fieldName="id" fieldType="Long" fieldModify="-" fieldDesc="领域图谱id" id="384"><mxCell style="text;strokeColor=none;fillColor=none;align=left;verticalAlign=top;spacingLeft=4;spacingRight=4;overflow=hidden;rotatable=0;points=[];portConstraint=none;metaEdit=1;cloneable=1;rotation=0;connectable=1;container=0;dropTarget=1;imageAspect=1;absoluteArcSize=0;portConstraintRotation=0;snapToPoint=0;fixDash=0;pointerEvents=0;enumerate=0;resizeHeight=1;resizeWidth=1;autosize=1;part=1;movable=1;rounded=0;fontFamily=Helvetica;fontSize=13;fontColor=default;" parent="383" vertex="1"><mxGeometry y="28" width="350" height="32" as="geometry"/></mxCell></object><object label="《%shapeType%》&#10;%className%&#10;%classDesc%" placeholders="1" shapeType="COMMAND" classPackage="update" classDesc="更新领域图谱信息" className="domainChartUpdate" cmdType="UPDATE" id="385"><mxCell style="swimlane;fontStyle=1;align=center;verticalAlign=top;childLayout=stackLayout;horizontal=1;startSize=60;horizontalStack=0;resizeParent=1;resizeParentMax=0;resizeLast=0;collapsible=1;marginBottom=0;fixDash=1;container=1;enumerate=0;treeMoving=1;swimlaneBody=1;fillOpacity=100;strokeOpacity=100;overflow=visible;rounded=0;swimlaneLine=1;sketch=0;shadow=0;arcSize=9;strokeWidth=1;fillStyle=auto;swimlaneFillColor=default;metaEdit=1;labelPadding=0;cloneable=1;separatorColor=none;swimlaneHead=1;noLabel=0;direction=east;portConstraint=none;portConstraintRotation=0;rotation=0;connectable=0;snapToPoint=0;perimeter=rectanglePerimeter;dropTarget=1;expand=1;part=1;backgroundOutline=1;movableLabel=1;autosize=1;fixedWidth=1;resizable=1;resizeWidth=0;resizeHeight=0;rotatable=1;treeFolding=0;pointerEvents=1;moveCells=0;comic=0;enumerateValue=123;allowArrows=0;fontFamily=Helvetica;fontSize=13;fillColor=#fff2cc;strokeColor=#d6b656;" parent="1" vertex="1"><mxGeometry x="1620" y="450" width="350" height="273" as="geometry"><mxRectangle x="-950" y="80" width="350" height="70" as="alternateBounds"/></mxGeometry></mxCell></object><object label="%fieldModify% %fieldName%: %fieldType%    #%fieldDesc%" placeholders="1" shapeType="FIELD" fieldName="id" fieldType="Long" fieldModify="-" fieldDesc="领域图谱id" id="387"><mxCell style="text;strokeColor=none;fillColor=none;align=left;verticalAlign=top;spacingLeft=4;spacingRight=4;overflow=hidden;rotatable=0;points=[];portConstraint=none;metaEdit=1;cloneable=1;rotation=0;connectable=1;container=0;dropTarget=1;imageAspect=1;absoluteArcSize=0;portConstraintRotation=0;snapToPoint=0;fixDash=0;pointerEvents=0;enumerate=0;resizeHeight=1;resizeWidth=1;autosize=1;part=1;movable=1;rounded=0;fontFamily=Helvetica;fontSize=13;fontColor=default;" parent="385" vertex="1"><mxGeometry y="60" width="350" height="23" as="geometry"/></mxCell></object><object label="%fieldModify% %fieldName%: %fieldType%    #%fieldDesc%" placeholders="1" shapeType="FIELD" fieldName="domainAuthor" fieldType="String" fieldModify="-" fieldDesc="领域作者" id="388"><mxCell style="text;strokeColor=none;fillColor=none;align=left;verticalAlign=top;spacingLeft=4;spacingRight=4;overflow=hidden;rotatable=0;points=[];portConstraint=none;metaEdit=1;cloneable=1;rotation=0;connectable=1;container=0;dropTarget=1;imageAspect=1;absoluteArcSize=0;portConstraintRotation=0;snapToPoint=0;fixDash=0;pointerEvents=0;enumerate=0;resizeHeight=1;resizeWidth=1;autosize=1;part=1;movable=1;rounded=0;fontFamily=Helvetica;fontSize=13;fontColor=default;" parent="385" vertex="1"><mxGeometry y="83" width="350" height="28" as="geometry"/></mxCell></object><object label="%fieldModify% %fieldName%: %fieldType%    #%fieldDesc%" placeholders="1" shapeType="FIELD" fieldName="domainDesc" fieldType="String" fieldModify="-" fieldDesc="领域描述" id="390"><mxCell style="text;strokeColor=none;fillColor=none;align=left;verticalAlign=top;spacingLeft=4;spacingRight=4;overflow=hidden;rotatable=0;points=[];portConstraint=none;metaEdit=1;cloneable=1;rotation=0;connectable=1;container=0;dropTarget=1;imageAspect=1;absoluteArcSize=0;portConstraintRotation=0;snapToPoint=0;fixDash=0;pointerEvents=0;enumerate=0;resizeHeight=1;resizeWidth=1;autosize=1;part=1;movable=1;rounded=0;fontFamily=Helvetica;fontSize=13;fontColor=default;" parent="385" vertex="1"><mxGeometry y="111" width="350" height="27" as="geometry"/></mxCell></object><object label="%fieldModify% %fieldName%: %fieldType%    #%fieldDesc%" placeholders="1" shapeType="FIELD" fieldName="domainName" fieldType="String" fieldModify="-" fieldDesc="领域名" id="391"><mxCell style="text;strokeColor=none;fillColor=none;align=left;verticalAlign=top;spacingLeft=4;spacingRight=4;overflow=hidden;rotatable=0;points=[];portConstraint=none;metaEdit=1;cloneable=1;rotation=0;connectable=1;container=0;dropTarget=1;imageAspect=1;absoluteArcSize=0;portConstraintRotation=0;snapToPoint=0;fixDash=0;pointerEvents=0;enumerate=0;resizeHeight=1;resizeWidth=1;autosize=1;part=1;movable=1;rounded=0;fontFamily=Helvetica;fontSize=13;fontColor=default;" parent="385" vertex="1"><mxGeometry y="138" width="350" height="25" as="geometry"/></mxCell></object><object label="《%shapeType%》" placeholders="1" shapeType="RULE_LIST" id="392"><mxCell style="swimlane;fontStyle=1;align=center;verticalAlign=top;childLayout=stackLayout;horizontal=1;startSize=28;horizontalStack=0;resizeParent=1;resizeParentMax=0;resizeLast=0;collapsible=1;marginBottom=0;fixDash=1;container=1;enumerate=0;treeMoving=1;swimlaneBody=1;fillOpacity=100;strokeOpacity=100;overflow=visible;rounded=0;swimlaneLine=1;sketch=0;shadow=0;arcSize=19;strokeWidth=1;fillStyle=auto;swimlaneFillColor=none;metaEdit=1;labelPadding=0;cloneable=1;separatorColor=none;swimlaneHead=1;noLabel=0;direction=east;portConstraint=none;portConstraintRotation=0;rotation=0;connectable=0;snapToPoint=0;perimeter=rectanglePerimeter;dropTarget=1;expand=1;part=1;backgroundOutline=1;movableLabel=1;autosize=1;fixedWidth=0;resizable=1;resizeWidth=0;resizeHeight=0;rotatable=1;treeFolding=0;pointerEvents=1;moveCells=0;comic=0;enumerateValue=123;allowArrows=0;fontFamily=Helvetica;fontSize=13;glass=0;editable=1;movable=1;deletable=1;fillColor=none;strokeColor=#b85450;gradientColor=none;" parent="385" vertex="1"><mxGeometry y="163" width="350" height="58" as="geometry"><mxRectangle y="256" width="420" height="50" as="alternateBounds"/></mxGeometry></mxCell></object><object label="rule: %ruleDesc%" placeholders="1" shapeType="RULE_ITEM" ruleDesc="规则描述" id="393"><mxCell style="text;strokeColor=none;fillColor=none;align=left;verticalAlign=top;spacingLeft=4;spacingRight=4;overflow=hidden;rotatable=0;points=[];portConstraint=none;metaEdit=1;cloneable=1;rotation=0;connectable=1;container=0;dropTarget=1;imageAspect=1;absoluteArcSize=0;portConstraintRotation=0;snapToPoint=0;fixDash=0;pointerEvents=0;enumerate=0;resizeHeight=1;resizeWidth=1;autosize=1;part=1;movable=1;rounded=0;fontFamily=Helvetica;fontSize=13;fontColor=default;" parent="392" vertex="1"><mxGeometry y="28" width="350" height="30" as="geometry"/></mxCell></object><object label="《%shapeType%》" placeholders="1" shapeType="EVENT" id="394"><mxCell style="swimlane;fontStyle=1;align=center;verticalAlign=top;childLayout=stackLayout;horizontal=1;startSize=28;horizontalStack=0;resizeParent=1;resizeParentMax=0;resizeLast=0;collapsible=1;marginBottom=0;fixDash=1;container=1;enumerate=0;treeMoving=1;swimlaneBody=1;fillOpacity=100;strokeOpacity=100;overflow=visible;rounded=0;swimlaneLine=1;sketch=0;shadow=0;arcSize=19;strokeWidth=1;fillStyle=auto;swimlaneFillColor=none;metaEdit=1;labelPadding=0;cloneable=1;separatorColor=none;swimlaneHead=1;noLabel=0;direction=east;portConstraint=none;portConstraintRotation=0;rotation=0;connectable=0;snapToPoint=0;perimeter=rectanglePerimeter;dropTarget=1;expand=1;part=1;backgroundOutline=1;movableLabel=1;autosize=1;fixedWidth=0;resizable=1;resizeWidth=0;resizeHeight=0;rotatable=1;treeFolding=0;pointerEvents=1;moveCells=0;comic=0;enumerateValue=123;allowArrows=0;fontFamily=Helvetica;fontSize=13;glass=0;editable=1;movable=1;deletable=1;fillColor=none;strokeColor=#6c8ebf;gradientColor=#7ea6e0;" parent="385" vertex="1"><mxGeometry y="221" width="350" height="52" as="geometry"><mxRectangle y="204" width="420" height="50" as="alternateBounds"/></mxGeometry></mxCell></object><object label="《%shapeType%》&#10;%className%&#10;%classDesc%" placeholders="1" shapeType="COMMAND" classPackage="remove" classDesc="删除领域图及云端文件" className="domainChartRemove" cmdType="DELETE" id="395"><mxCell style="swimlane;fontStyle=1;align=center;verticalAlign=top;childLayout=stackLayout;horizontal=1;startSize=60;horizontalStack=0;resizeParent=1;resizeParentMax=0;resizeLast=0;collapsible=1;marginBottom=0;fixDash=1;container=1;enumerate=0;treeMoving=1;swimlaneBody=1;fillOpacity=100;strokeOpacity=100;overflow=visible;rounded=0;swimlaneLine=1;sketch=0;shadow=0;arcSize=9;strokeWidth=1;fillStyle=auto;swimlaneFillColor=default;metaEdit=1;labelPadding=0;cloneable=1;separatorColor=none;swimlaneHead=1;noLabel=0;direction=east;portConstraint=none;portConstraintRotation=0;rotation=0;connectable=0;snapToPoint=0;perimeter=rectanglePerimeter;dropTarget=1;expand=1;part=1;backgroundOutline=1;movableLabel=1;autosize=1;fixedWidth=1;resizable=1;resizeWidth=0;resizeHeight=0;rotatable=1;treeFolding=0;pointerEvents=1;moveCells=0;comic=0;enumerateValue=123;allowArrows=0;fontFamily=Helvetica;fontSize=13;fillColor=#fff2cc;strokeColor=#d6b656;" parent="1" vertex="1"><mxGeometry x="2000" y="450" width="350" height="201" as="geometry"><mxRectangle x="-950" y="80" width="350" height="70" as="alternateBounds"/></mxGeometry></mxCell></object><object label="%fieldModify% %fieldName%: %fieldType%    #%fieldDesc%" placeholders="1" shapeType="FIELD" fieldName="id" fieldType="Long" fieldModify="-" fieldDesc="领域图谱id" id="396"><mxCell style="text;strokeColor=none;fillColor=none;align=left;verticalAlign=top;spacingLeft=4;spacingRight=4;overflow=hidden;rotatable=0;points=[];portConstraint=none;metaEdit=1;cloneable=1;rotation=0;connectable=1;container=0;dropTarget=1;imageAspect=1;absoluteArcSize=0;portConstraintRotation=0;snapToPoint=0;fixDash=0;pointerEvents=0;enumerate=0;resizeHeight=1;resizeWidth=1;autosize=1;part=1;movable=1;rounded=0;fontFamily=Helvetica;fontSize=13;fontColor=default;" parent="395" vertex="1"><mxGeometry y="60" width="350" height="31" as="geometry"/></mxCell></object><object label="《%shapeType%》" placeholders="1" shapeType="RULE_LIST" id="397"><mxCell style="swimlane;fontStyle=1;align=center;verticalAlign=top;childLayout=stackLayout;horizontal=1;startSize=28;horizontalStack=0;resizeParent=1;resizeParentMax=0;resizeLast=0;collapsible=1;marginBottom=0;fixDash=1;container=1;enumerate=0;treeMoving=1;swimlaneBody=1;fillOpacity=100;strokeOpacity=100;overflow=visible;rounded=0;swimlaneLine=1;sketch=0;shadow=0;arcSize=19;strokeWidth=1;fillStyle=auto;swimlaneFillColor=none;metaEdit=1;labelPadding=0;cloneable=1;separatorColor=none;swimlaneHead=1;noLabel=0;direction=east;portConstraint=none;portConstraintRotation=0;rotation=0;connectable=0;snapToPoint=0;perimeter=rectanglePerimeter;dropTarget=1;expand=1;part=1;backgroundOutline=1;movableLabel=1;autosize=1;fixedWidth=0;resizable=1;resizeWidth=0;resizeHeight=0;rotatable=1;treeFolding=0;pointerEvents=1;moveCells=0;comic=0;enumerateValue=123;allowArrows=0;fontFamily=Helvetica;fontSize=13;glass=0;editable=1;movable=1;deletable=1;fillColor=none;strokeColor=#b85450;gradientColor=none;" parent="395" vertex="1"><mxGeometry y="91" width="350" height="58" as="geometry"><mxRectangle y="256" width="420" height="50" as="alternateBounds"/></mxGeometry></mxCell></object><object label="rule: %ruleDesc%" placeholders="1" shapeType="RULE_ITEM" ruleDesc="同时删除云存储的图谱" id="398"><mxCell style="text;strokeColor=none;fillColor=none;align=left;verticalAlign=top;spacingLeft=4;spacingRight=4;overflow=hidden;rotatable=0;points=[];portConstraint=none;metaEdit=1;cloneable=1;rotation=0;connectable=1;container=0;dropTarget=1;imageAspect=1;absoluteArcSize=0;portConstraintRotation=0;snapToPoint=0;fixDash=0;pointerEvents=0;enumerate=0;resizeHeight=1;resizeWidth=1;autosize=1;part=1;movable=1;rounded=0;fontFamily=Helvetica;fontSize=13;fontColor=default;" parent="397" vertex="1"><mxGeometry y="28" width="350" height="30" as="geometry"/></mxCell></object><object label="《%shapeType%》" placeholders="1" shapeType="EVENT" id="399"><mxCell style="swimlane;fontStyle=1;align=center;verticalAlign=top;childLayout=stackLayout;horizontal=1;startSize=28;horizontalStack=0;resizeParent=1;resizeParentMax=0;resizeLast=0;collapsible=1;marginBottom=0;fixDash=1;container=1;enumerate=0;treeMoving=1;swimlaneBody=1;fillOpacity=100;strokeOpacity=100;overflow=visible;rounded=0;swimlaneLine=1;sketch=0;shadow=0;arcSize=19;strokeWidth=1;fillStyle=auto;swimlaneFillColor=none;metaEdit=1;labelPadding=0;cloneable=1;separatorColor=none;swimlaneHead=1;noLabel=0;direction=east;portConstraint=none;portConstraintRotation=0;rotation=0;connectable=0;snapToPoint=0;perimeter=rectanglePerimeter;dropTarget=1;expand=1;part=1;backgroundOutline=1;movableLabel=1;autosize=1;fixedWidth=0;resizable=1;resizeWidth=0;resizeHeight=0;rotatable=1;treeFolding=0;pointerEvents=1;moveCells=0;comic=0;enumerateValue=123;allowArrows=0;fontFamily=Helvetica;fontSize=13;glass=0;editable=1;movable=1;deletable=1;fillColor=none;strokeColor=#6c8ebf;gradientColor=#7ea6e0;" parent="395" vertex="1"><mxGeometry y="149" width="350" height="52" as="geometry"><mxRectangle y="204" width="420" height="50" as="alternateBounds"/></mxGeometry></mxCell></object><object label="《%shapeType%》&#10;%className%&#10;%classDesc%" placeholders="1" shapeType="QUERY_RESULT" className="ProjectDTO" classDesc="项目" id="400"><mxCell style="swimlane;fontStyle=3;align=center;verticalAlign=top;childLayout=stackLayout;horizontal=1;startSize=55;horizontalStack=0;resizeParent=1;resizeParentMax=0;resizeLast=0;collapsible=1;marginBottom=0;fixDash=1;container=1;enumerate=0;treeMoving=1;swimlaneBody=1;fillOpacity=100;strokeOpacity=100;overflow=visible;rounded=1;swimlaneLine=1;sketch=0;shadow=0;arcSize=12;fillColor=#dae8fc;strokeColor=#6c8ebf;strokeWidth=1;fillStyle=auto;swimlaneFillColor=default;metaEdit=1;labelPadding=0;cloneable=1;separatorColor=none;swimlaneHead=1;noLabel=0;direction=east;portConstraint=none;portConstraintRotation=0;rotation=0;connectable=1;snapToPoint=0;perimeter=rectanglePerimeter;dropTarget=1;expand=1;part=1;backgroundOutline=1;movableLabel=1;autosize=1;fixedWidth=0;resizable=1;resizeWidth=0;resizeHeight=0;rotatable=1;treeFolding=0;pointerEvents=1;moveCells=0;comic=0;enumerateValue=123;allowArrows=0;glass=0;fontFamily=Helvetica;fontSize=13;" parent="1" vertex="1"><mxGeometry x="-1520" y="1110" width="370" height="185" as="geometry"><mxRectangle x="70" y="410" width="250" height="50" as="alternateBounds"/></mxGeometry></mxCell></object><object label="%fieldModify% %fieldName%: %fieldType%    #%fieldDesc%" placeholders="1" shapeType="FIELD" fieldName="id" fieldType="Long" fieldModify="-" fieldDesc="项目id" id="401"><mxCell style="text;strokeColor=none;fillColor=none;align=left;verticalAlign=top;spacingLeft=4;spacingRight=4;overflow=hidden;rotatable=0;points=[];portConstraint=none;metaEdit=1;cloneable=1;rotation=0;connectable=1;container=0;dropTarget=1;imageAspect=1;absoluteArcSize=0;portConstraintRotation=0;snapToPoint=0;fixDash=0;pointerEvents=0;enumerate=0;resizeHeight=1;resizeWidth=1;autosize=1;part=1;movable=1;rounded=0;fontFamily=Helvetica;fontSize=13;fontColor=default;" parent="400" vertex="1"><mxGeometry y="55" width="370" height="22" as="geometry"/></mxCell></object><object label="%fieldModify% %fieldName%: %fieldType%    #%fieldDesc%" placeholders="1" shapeType="FIELD" fieldName="packagePath" fieldType="String" fieldModify="-" fieldDesc="包路径" id="402"><mxCell style="text;strokeColor=none;fillColor=none;align=left;verticalAlign=top;spacingLeft=4;spacingRight=4;overflow=hidden;rotatable=0;points=[];portConstraint=none;metaEdit=1;cloneable=1;rotation=0;connectable=1;container=0;dropTarget=1;imageAspect=1;absoluteArcSize=0;portConstraintRotation=0;snapToPoint=0;fixDash=0;pointerEvents=0;enumerate=0;resizeHeight=1;resizeWidth=1;autosize=1;part=1;movable=1;rounded=0;fontFamily=Helvetica;fontSize=13;fontColor=default;" parent="400" vertex="1"><mxGeometry y="77" width="370" height="20" as="geometry"/></mxCell></object><object label="%fieldModify% %fieldName%: %fieldType%    #%fieldDesc%" placeholders="1" shapeType="FIELD" fieldName="projectAuthor" fieldType="String" fieldModify="-" fieldDesc="项目作者" id="403"><mxCell style="text;strokeColor=none;fillColor=none;align=left;verticalAlign=top;spacingLeft=4;spacingRight=4;overflow=hidden;rotatable=0;points=[];portConstraint=none;metaEdit=1;cloneable=1;rotation=0;connectable=1;container=0;dropTarget=1;imageAspect=1;absoluteArcSize=0;portConstraintRotation=0;snapToPoint=0;fixDash=0;pointerEvents=0;enumerate=0;resizeHeight=1;resizeWidth=1;autosize=1;part=1;movable=1;rounded=0;fontFamily=Helvetica;fontSize=13;fontColor=default;" parent="400" vertex="1"><mxGeometry y="97" width="370" height="22" as="geometry"/></mxCell></object><object label="%fieldModify% %fieldName%: %fieldType%    #%fieldDesc%" placeholders="1" shapeType="FIELD" fieldName="projectVersion" fieldType="String" fieldModify="-" fieldDesc="项目版本号" id="404"><mxCell style="text;strokeColor=none;fillColor=none;align=left;verticalAlign=top;spacingLeft=4;spacingRight=4;overflow=hidden;rotatable=0;points=[];portConstraint=none;metaEdit=1;cloneable=1;rotation=0;connectable=1;container=0;dropTarget=1;imageAspect=1;absoluteArcSize=0;portConstraintRotation=0;snapToPoint=0;fixDash=0;pointerEvents=0;enumerate=0;resizeHeight=1;resizeWidth=1;autosize=1;part=1;movable=1;rounded=0;fontFamily=Helvetica;fontSize=13;fontColor=default;" parent="400" vertex="1"><mxGeometry y="119" width="370" height="20" as="geometry"/></mxCell></object><object label="%fieldModify% %fieldName%: %fieldType%    #%fieldDesc%" placeholders="1" shapeType="FIELD" fieldName="projectDesc" fieldType="String" fieldModify="-" fieldDesc="项目描述" id="405"><mxCell style="text;strokeColor=none;fillColor=none;align=left;verticalAlign=top;spacingLeft=4;spacingRight=4;overflow=hidden;rotatable=0;points=[];portConstraint=none;metaEdit=1;cloneable=1;rotation=0;connectable=1;container=0;dropTarget=1;imageAspect=1;absoluteArcSize=0;portConstraintRotation=0;snapToPoint=0;fixDash=0;pointerEvents=0;enumerate=0;resizeHeight=1;resizeWidth=1;autosize=1;part=1;movable=1;rounded=0;fontFamily=Helvetica;fontSize=13;fontColor=default;" parent="400" vertex="1"><mxGeometry y="139" width="370" height="20" as="geometry"/></mxCell></object><object label="%fieldModify% %fieldName%: %fieldType%    #%fieldDesc%" placeholders="1" shapeType="FIELD" fieldName="projectName" fieldType="String" fieldModify="-" fieldDesc="项目名" id="406"><mxCell style="text;strokeColor=none;fillColor=none;align=left;verticalAlign=top;spacingLeft=4;spacingRight=4;overflow=hidden;rotatable=0;points=[];portConstraint=none;metaEdit=1;cloneable=1;rotation=0;connectable=1;container=0;dropTarget=1;imageAspect=1;absoluteArcSize=0;portConstraintRotation=0;snapToPoint=0;fixDash=0;pointerEvents=0;enumerate=0;resizeHeight=1;resizeWidth=1;autosize=1;part=1;movable=1;rounded=0;fontFamily=Helvetica;fontSize=13;fontColor=default;" parent="400" vertex="1"><mxGeometry y="159" width="370" height="26" as="geometry"/></mxCell></object><object label="《%shapeType%》&#10;%className%&#10;%classDesc%" placeholders="1" shapeType="QUERY_RESULT" className="DomainChartDTO" classDesc="领域图谱" id="407"><mxCell style="swimlane;fontStyle=3;align=center;verticalAlign=top;childLayout=stackLayout;horizontal=1;startSize=55;horizontalStack=0;resizeParent=1;resizeParentMax=0;resizeLast=0;collapsible=1;marginBottom=0;fixDash=1;container=1;enumerate=0;treeMoving=1;swimlaneBody=1;fillOpacity=100;strokeOpacity=100;overflow=visible;rounded=1;swimlaneLine=1;sketch=0;shadow=0;arcSize=12;fillColor=#fff2cc;strokeColor=#d6b656;strokeWidth=1;fillStyle=auto;swimlaneFillColor=default;metaEdit=1;labelPadding=0;cloneable=1;separatorColor=none;swimlaneHead=1;noLabel=0;direction=east;portConstraint=none;portConstraintRotation=0;rotation=0;connectable=1;snapToPoint=0;perimeter=rectanglePerimeter;dropTarget=1;expand=1;part=1;backgroundOutline=1;movableLabel=1;autosize=1;fixedWidth=0;resizable=1;resizeWidth=0;resizeHeight=0;rotatable=1;treeFolding=0;pointerEvents=1;moveCells=0;comic=0;enumerateValue=123;allowArrows=0;glass=0;fontFamily=Helvetica;fontSize=13;" parent="1" vertex="1"><mxGeometry x="-1090" y="1110" width="370" height="167" as="geometry"><mxRectangle x="70" y="410" width="250" height="50" as="alternateBounds"/></mxGeometry></mxCell></object><object label="%fieldModify% %fieldName%: %fieldType%    #%fieldDesc%" placeholders="1" shapeType="FIELD" fieldName="id" fieldType="Long" fieldModify="-" fieldDesc="领域图谱id" id="408"><mxCell style="text;strokeColor=none;fillColor=none;align=left;verticalAlign=top;spacingLeft=4;spacingRight=4;overflow=hidden;rotatable=0;points=[];portConstraint=none;metaEdit=1;cloneable=1;rotation=0;connectable=1;container=0;dropTarget=1;imageAspect=1;absoluteArcSize=0;portConstraintRotation=0;snapToPoint=0;fixDash=0;pointerEvents=0;enumerate=0;resizeHeight=1;resizeWidth=1;autosize=1;part=1;movable=1;rounded=0;fontFamily=Helvetica;fontSize=13;fontColor=default;" parent="407" vertex="1"><mxGeometry y="55" width="370" height="23" as="geometry"/></mxCell></object><object label="%fieldModify% %fieldName%: %fieldType%    #%fieldDesc%" placeholders="1" shapeType="FIELD" fieldName="domainName" fieldType="String" fieldModify="-" fieldDesc="领域名" id="409"><mxCell style="text;strokeColor=none;fillColor=none;align=left;verticalAlign=top;spacingLeft=4;spacingRight=4;overflow=hidden;rotatable=0;points=[];portConstraint=none;metaEdit=1;cloneable=1;rotation=0;connectable=1;container=0;dropTarget=1;imageAspect=1;absoluteArcSize=0;portConstraintRotation=0;snapToPoint=0;fixDash=0;pointerEvents=0;enumerate=0;resizeHeight=1;resizeWidth=1;autosize=1;part=1;movable=1;rounded=0;fontFamily=Helvetica;fontSize=13;fontColor=default;" parent="407" vertex="1"><mxGeometry y="78" width="370" height="20" as="geometry"/></mxCell></object><object label="%fieldModify% %fieldName%: %fieldType%    #%fieldDesc%" placeholders="1" shapeType="FIELD" fieldName="domainAuthor" fieldType="String" fieldModify="-" fieldDesc="领域作者" id="410"><mxCell style="text;strokeColor=none;fillColor=none;align=left;verticalAlign=top;spacingLeft=4;spacingRight=4;overflow=hidden;rotatable=0;points=[];portConstraint=none;metaEdit=1;cloneable=1;rotation=0;connectable=1;container=0;dropTarget=1;imageAspect=1;absoluteArcSize=0;portConstraintRotation=0;snapToPoint=0;fixDash=0;pointerEvents=0;enumerate=0;resizeHeight=1;resizeWidth=1;autosize=1;part=1;movable=1;rounded=0;fontFamily=Helvetica;fontSize=13;fontColor=default;" parent="407" vertex="1"><mxGeometry y="98" width="370" height="20" as="geometry"/></mxCell></object><object label="%fieldModify% %fieldName%: %fieldType%    #%fieldDesc%" placeholders="1" shapeType="FIELD" fieldName="chartXml" fieldType="String" fieldModify="-" fieldDesc="图谱xml文件内容" id="411"><mxCell style="text;strokeColor=none;fillColor=none;align=left;verticalAlign=top;spacingLeft=4;spacingRight=4;overflow=hidden;rotatable=0;points=[];portConstraint=none;metaEdit=1;cloneable=1;rotation=0;connectable=1;container=0;dropTarget=1;imageAspect=1;absoluteArcSize=0;portConstraintRotation=0;snapToPoint=0;fixDash=0;pointerEvents=0;enumerate=0;resizeHeight=1;resizeWidth=1;autosize=1;part=1;movable=1;rounded=0;fontFamily=Helvetica;fontSize=13;fontColor=default;" parent="407" vertex="1"><mxGeometry y="118" width="370" height="22" as="geometry"/></mxCell></object><object label="%fieldModify% %fieldName%: %fieldType%    #%fieldDesc%" placeholders="1" shapeType="FIELD" fieldName="domainDesc" fieldType="String" fieldModify="-" fieldDesc="领域描述" id="412"><mxCell style="text;strokeColor=none;fillColor=none;align=left;verticalAlign=top;spacingLeft=4;spacingRight=4;overflow=hidden;rotatable=0;points=[];portConstraint=none;metaEdit=1;cloneable=1;rotation=0;connectable=1;container=0;dropTarget=1;imageAspect=1;absoluteArcSize=0;portConstraintRotation=0;snapToPoint=0;fixDash=0;pointerEvents=0;enumerate=0;resizeHeight=1;resizeWidth=1;autosize=1;part=1;movable=1;rounded=0;fontFamily=Helvetica;fontSize=13;fontColor=default;" parent="407" vertex="1"><mxGeometry y="140" width="370" height="27" as="geometry"/></mxCell></object><object label="%nodeDesc%" placeholders="1" nodeDesc="分页查询项目信息" shapeType="NODE" id="413"><mxCell style="rounded=0;whiteSpace=wrap;html=1;shadow=0;glass=0;sketch=0;fillStyle=auto;strokeWidth=1;metaEdit=1;resizable=1;rotatable=0;snapToPoint=0;connectable=1;absoluteArcSize=0;noLabel=0;labelPadding=0;allowArrows=1;recursiveResize=1;expand=1;editable=1;movable=1;deletable=1;fixDash=0;collapsible=0;portConstraintRotation=0;points=[[0,0.5,0,0,0],[1,0.5,0,0,0]];backgroundOutline=0;resizeHeight=1;resizeWidth=1;" parent="1" vertex="1"><mxGeometry x="-191" y="1111" width="168" height="40" as="geometry"/></mxCell></object><object label="%nodeDesc%" placeholders="1" nodeDesc="分页查询项目下的领域图谱信息" shapeType="NODE" id="414"><mxCell style="rounded=0;whiteSpace=wrap;html=1;shadow=0;glass=0;sketch=0;fillStyle=auto;strokeWidth=1;metaEdit=1;resizable=1;rotatable=0;snapToPoint=0;connectable=1;absoluteArcSize=0;noLabel=0;labelPadding=0;allowArrows=1;recursiveResize=1;expand=1;editable=1;movable=1;deletable=1;fixDash=0;collapsible=0;portConstraintRotation=0;points=[[0,0.5,0,0,0],[1,0.5,0,0,0]];backgroundOutline=0;resizeHeight=1;resizeWidth=1;" parent="1" vertex="1"><mxGeometry x="210.75" y="1100" width="215.75" height="42" as="geometry"/></mxCell></object><object label="《%shapeType%》&#10;%className%&#10;%classDesc%&#10;%queryResultType%" placeholders="1" shapeType="PAGE_QUERY" className="ProjectPageQuery" classDesc="分页查询项目信息" queryResultType="ProjectDTO" id="415"><mxCell style="swimlane;fontStyle=1;align=center;verticalAlign=top;childLayout=stackLayout;horizontal=1;startSize=80;horizontalStack=0;resizeParent=1;resizeParentMax=0;resizeLast=0;collapsible=1;marginBottom=0;fixDash=1;container=1;enumerate=0;treeMoving=1;swimlaneBody=1;fillOpacity=100;strokeOpacity=100;overflow=visible;rounded=0;swimlaneLine=1;sketch=0;shadow=0;arcSize=3;strokeWidth=1;fillStyle=auto;swimlaneFillColor=default;metaEdit=1;labelPadding=0;cloneable=1;separatorColor=none;swimlaneHead=1;noLabel=0;direction=east;portConstraint=none;portConstraintRotation=0;rotation=0;connectable=1;snapToPoint=0;perimeter=rectanglePerimeter;dropTarget=1;expand=1;part=1;backgroundOutline=1;movableLabel=1;autosize=1;fixedWidth=0;resizable=1;resizeWidth=0;resizeHeight=0;rotatable=1;treeFolding=0;pointerEvents=1;moveCells=0;comic=0;enumerateValue=123;allowArrows=0;fontFamily=Helvetica;fontSize=13;fillColor=#dae8fc;strokeColor=#6c8ebf;" parent="1" vertex="1"><mxGeometry x="-273.6200000000001" y="1180" width="317.24999999999955" height="104" as="geometry"><mxRectangle y="28" width="250" height="50" as="alternateBounds"/></mxGeometry></mxCell></object><object label="《%shapeType%》&#10;%className%&#10;%classDesc%&#10;%queryResultType%" placeholders="1" shapeType="PAGE_QUERY" className="DomainChartPageQuery" classDesc="分页查询领域图谱信息" queryResultType="DomainChartDTO" id="416"><mxCell style="swimlane;fontStyle=1;align=center;verticalAlign=top;childLayout=stackLayout;horizontal=1;startSize=80;horizontalStack=0;resizeParent=1;resizeParentMax=0;resizeLast=0;collapsible=1;marginBottom=0;fixDash=1;container=1;enumerate=0;treeMoving=1;swimlaneBody=1;fillOpacity=100;strokeOpacity=100;overflow=visible;rounded=0;swimlaneLine=1;sketch=0;shadow=0;arcSize=3;strokeWidth=1;fillStyle=auto;swimlaneFillColor=default;metaEdit=1;labelPadding=0;cloneable=1;separatorColor=none;swimlaneHead=1;noLabel=0;direction=east;portConstraint=none;portConstraintRotation=0;rotation=0;connectable=1;snapToPoint=0;perimeter=rectanglePerimeter;dropTarget=1;expand=1;part=1;backgroundOutline=1;movableLabel=1;autosize=1;fixedWidth=0;resizable=1;resizeWidth=0;resizeHeight=0;rotatable=1;treeFolding=0;pointerEvents=1;moveCells=0;comic=0;enumerateValue=123;allowArrows=0;fontFamily=Helvetica;fontSize=13;fillColor=#fff2cc;strokeColor=#d6b656;" parent="1" vertex="1"><mxGeometry x="160" y="1180" width="317.24999999999955" height="103" as="geometry"><mxRectangle y="28" width="250" height="50" as="alternateBounds"/></mxGeometry></mxCell></object><object label="%fieldModify% %fieldName%: %fieldType%    #%fieldDesc%" placeholders="1" shapeType="FIELD" fieldName="projectId" fieldType="Long" fieldModify="-" fieldDesc="项目id" id="436"><mxCell style="text;strokeColor=none;fillColor=none;align=left;verticalAlign=top;spacingLeft=4;spacingRight=4;overflow=hidden;rotatable=0;points=[];portConstraint=none;metaEdit=1;cloneable=1;rotation=0;connectable=1;container=0;dropTarget=1;imageAspect=1;absoluteArcSize=0;portConstraintRotation=0;snapToPoint=0;fixDash=0;pointerEvents=0;enumerate=0;resizeHeight=1;resizeWidth=1;autosize=1;part=1;movable=1;rounded=0;fontFamily=Helvetica;fontSize=13;fontColor=default;" parent="416" vertex="1"><mxGeometry y="80" width="317.24999999999955" height="23" as="geometry"/></mxCell></object><mxCell id="420" value="" style="endArrow=block;html=1;rounded=0;fontSize=30;fontColor=#999999;startSize=14;endSize=6;targetPerimeterSpacing=0;strokeWidth=8;jumpStyle=none;movable=1;resizable=1;rotatable=1;deletable=1;editable=1;connectable=1;strokeColor=#CCCCCC;endFill=1;" parent="1" edge="1"><mxGeometry width="50" height="50" relative="1" as="geometry"><mxPoint x="-520" y="1573.636363636364" as="sourcePoint"/><mxPoint x="-520" y="240" as="targetPoint"/></mxGeometry></mxCell><mxCell id="421" value="领域对象" style="text;html=1;strokeColor=none;fillColor=none;align=center;verticalAlign=middle;whiteSpace=wrap;rounded=0;fontSize=30;fontStyle=3;fontColor=#999999;movable=1;resizable=1;rotatable=1;deletable=1;editable=1;connectable=1;" parent="1" vertex="1"><mxGeometry x="-700" y="880" width="138.16" height="40" as="geometry"/></mxCell><mxCell id="422" value="指令能力" style="text;html=1;strokeColor=none;fillColor=none;align=center;verticalAlign=middle;whiteSpace=wrap;rounded=0;fontSize=30;fontStyle=3;fontColor=#999999;movable=1;resizable=1;rotatable=1;deletable=1;editable=1;connectable=1;" parent="1" vertex="1"><mxGeometry x="-480" y="880" width="150" height="40" as="geometry"/></mxCell><mxCell id="423" value="结构对象" style="text;html=1;strokeColor=none;fillColor=none;align=center;verticalAlign=middle;whiteSpace=wrap;rounded=0;fontSize=30;fontStyle=3;fontColor=#999999;movable=1;resizable=1;rotatable=1;deletable=1;editable=1;connectable=1;" parent="1" vertex="1"><mxGeometry x="-700" y="1000" width="138.16" height="40" as="geometry"/></mxCell><mxCell id="424" value="视图能力" style="text;html=1;strokeColor=none;fillColor=none;align=center;verticalAlign=middle;whiteSpace=wrap;rounded=0;fontSize=30;fontStyle=3;fontColor=#999999;movable=1;resizable=1;rotatable=1;deletable=1;editable=1;connectable=1;" parent="1" vertex="1"><mxGeometry x="-480" y="1000" width="140" height="40" as="geometry"/></mxCell><mxCell id="425" value="" style="endArrow=block;html=1;rounded=0;fontSize=30;fontColor=#999999;startSize=14;endSize=6;targetPerimeterSpacing=0;strokeWidth=8;jumpStyle=none;movable=1;resizable=1;rotatable=1;deletable=1;editable=1;connectable=1;strokeColor=#CCCCCC;endFill=1;" parent="1" edge="1"><mxGeometry width="50" height="50" relative="1" as="geometry"><mxPoint x="-1720" y="960" as="sourcePoint"/><mxPoint x="2050" y="960" as="targetPoint"/></mxGeometry></mxCell><object label="%nodeDesc%" placeholders="1" nodeDesc="根据项目信息和领域图谱信息，生成运行脚本" shapeType="NODE" id="435"><mxCell style="rounded=0;whiteSpace=wrap;html=1;shadow=0;glass=0;sketch=0;fillStyle=auto;strokeWidth=1;metaEdit=1;resizable=1;rotatable=0;snapToPoint=0;connectable=1;absoluteArcSize=0;noLabel=0;labelPadding=0;allowArrows=1;recursiveResize=1;expand=1;editable=1;movable=1;deletable=1;fixDash=0;collapsible=0;portConstraintRotation=0;points=[[0,0.5,0,0,0],[1,0.5,0,0,0]];backgroundOutline=0;resizeHeight=1;resizeWidth=1;" parent="1" vertex="1"><mxGeometry x="3250" y="370" width="285" height="42" as="geometry"/></mxCell></object><object label="%nodeDesc%" placeholders="1" nodeDesc="下载领域图谱云文件" shapeType="NODE" id="437"><mxCell style="rounded=0;whiteSpace=wrap;html=1;shadow=0;glass=0;sketch=0;fillStyle=auto;strokeWidth=1;metaEdit=1;resizable=1;rotatable=0;snapToPoint=0;connectable=1;absoluteArcSize=0;noLabel=0;labelPadding=0;allowArrows=1;recursiveResize=1;expand=1;editable=1;movable=1;deletable=1;fixDash=0;collapsible=0;portConstraintRotation=0;points=[[0,0.5,0,0,0],[1,0.5,0,0,0]];backgroundOutline=0;resizeHeight=1;resizeWidth=1;" parent="1" vertex="1"><mxGeometry x="2510" y="370" width="135" height="40" as="geometry"/></mxCell></object><object label="《%shapeType%》&#10;%className%&#10;%classDesc%" placeholders="1" shapeType="COMMAND" classPackage="chart.download" classDesc="获取领域图谱云端文件" className="domainChartXmlGet" cmdType="" id="438"><mxCell style="swimlane;fontStyle=1;align=center;verticalAlign=top;childLayout=stackLayout;horizontal=1;startSize=60;horizontalStack=0;resizeParent=1;resizeParentMax=0;resizeLast=0;collapsible=1;marginBottom=0;fixDash=1;container=1;enumerate=0;treeMoving=1;swimlaneBody=1;fillOpacity=100;strokeOpacity=100;overflow=visible;rounded=0;swimlaneLine=1;sketch=0;shadow=0;arcSize=9;strokeWidth=1;fillStyle=auto;swimlaneFillColor=default;metaEdit=1;labelPadding=0;cloneable=1;separatorColor=none;swimlaneHead=1;noLabel=0;direction=east;portConstraint=none;portConstraintRotation=0;rotation=0;connectable=0;snapToPoint=0;perimeter=rectanglePerimeter;dropTarget=1;expand=1;part=1;backgroundOutline=1;movableLabel=1;autosize=1;fixedWidth=1;resizable=1;resizeWidth=0;resizeHeight=0;rotatable=1;treeFolding=0;pointerEvents=1;moveCells=0;comic=0;enumerateValue=123;allowArrows=0;fontFamily=Helvetica;fontSize=13;fillColor=#fff2cc;strokeColor=#d6b656;" parent="1" vertex="1"><mxGeometry x="2402.5" y="450" width="350" height="201" as="geometry"><mxRectangle x="-950" y="80" width="350" height="70" as="alternateBounds"/></mxGeometry></mxCell></object><object label="%fieldModify% %fieldName%: %fieldType%    #%fieldDesc%" placeholders="1" shapeType="FIELD" fieldName="id" fieldType="Long" fieldModify="-" fieldDesc="领域图谱id" id="439"><mxCell style="text;strokeColor=none;fillColor=none;align=left;verticalAlign=top;spacingLeft=4;spacingRight=4;overflow=hidden;rotatable=0;points=[];portConstraint=none;metaEdit=1;cloneable=1;rotation=0;connectable=1;container=0;dropTarget=1;imageAspect=1;absoluteArcSize=0;portConstraintRotation=0;snapToPoint=0;fixDash=0;pointerEvents=0;enumerate=0;resizeHeight=1;resizeWidth=1;autosize=1;part=1;movable=1;rounded=0;fontFamily=Helvetica;fontSize=13;fontColor=default;" parent="438" vertex="1"><mxGeometry y="60" width="350" height="31" as="geometry"/></mxCell></object><object label="《%shapeType%》" placeholders="1" shapeType="RULE_LIST" id="440"><mxCell style="swimlane;fontStyle=1;align=center;verticalAlign=top;childLayout=stackLayout;horizontal=1;startSize=28;horizontalStack=0;resizeParent=1;resizeParentMax=0;resizeLast=0;collapsible=1;marginBottom=0;fixDash=1;container=1;enumerate=0;treeMoving=1;swimlaneBody=1;fillOpacity=100;strokeOpacity=100;overflow=visible;rounded=0;swimlaneLine=1;sketch=0;shadow=0;arcSize=19;strokeWidth=1;fillStyle=auto;swimlaneFillColor=none;metaEdit=1;labelPadding=0;cloneable=1;separatorColor=none;swimlaneHead=1;noLabel=0;direction=east;portConstraint=none;portConstraintRotation=0;rotation=0;connectable=0;snapToPoint=0;perimeter=rectanglePerimeter;dropTarget=1;expand=1;part=1;backgroundOutline=1;movableLabel=1;autosize=1;fixedWidth=0;resizable=1;resizeWidth=0;resizeHeight=0;rotatable=1;treeFolding=0;pointerEvents=1;moveCells=0;comic=0;enumerateValue=123;allowArrows=0;fontFamily=Helvetica;fontSize=13;glass=0;editable=1;movable=1;deletable=1;fillColor=none;strokeColor=#b85450;gradientColor=none;" parent="438" vertex="1"><mxGeometry y="91" width="350" height="58" as="geometry"><mxRectangle y="256" width="420" height="50" as="alternateBounds"/></mxGeometry></mxCell></object><object label="《%shapeType%》" placeholders="1" shapeType="EVENT" id="442"><mxCell style="swimlane;fontStyle=1;align=center;verticalAlign=top;childLayout=stackLayout;horizontal=1;startSize=28;horizontalStack=0;resizeParent=1;resizeParentMax=0;resizeLast=0;collapsible=1;marginBottom=0;fixDash=1;container=1;enumerate=0;treeMoving=1;swimlaneBody=1;fillOpacity=100;strokeOpacity=100;overflow=visible;rounded=0;swimlaneLine=1;sketch=0;shadow=0;arcSize=19;strokeWidth=1;fillStyle=auto;swimlaneFillColor=none;metaEdit=1;labelPadding=0;cloneable=1;separatorColor=none;swimlaneHead=1;noLabel=0;direction=east;portConstraint=none;portConstraintRotation=0;rotation=0;connectable=0;snapToPoint=0;perimeter=rectanglePerimeter;dropTarget=1;expand=1;part=1;backgroundOutline=1;movableLabel=1;autosize=1;fixedWidth=0;resizable=1;resizeWidth=0;resizeHeight=0;rotatable=1;treeFolding=0;pointerEvents=1;moveCells=0;comic=0;enumerateValue=123;allowArrows=0;fontFamily=Helvetica;fontSize=13;glass=0;editable=1;movable=1;deletable=1;fillColor=none;strokeColor=#6c8ebf;gradientColor=#7ea6e0;" parent="438" vertex="1"><mxGeometry y="149" width="350" height="52" as="geometry"><mxRectangle y="204" width="420" height="50" as="alternateBounds"/></mxGeometry></mxCell></object><object label="%nodeDesc%" placeholders="1" nodeDesc="根据项目信息生成项目框架" shapeType="NODE" id="443"><mxCell style="rounded=0;whiteSpace=wrap;html=1;shadow=0;glass=0;sketch=0;fillStyle=auto;strokeWidth=1;metaEdit=1;resizable=1;rotatable=0;snapToPoint=0;connectable=1;absoluteArcSize=0;noLabel=0;labelPadding=0;allowArrows=1;recursiveResize=1;expand=1;editable=1;movable=1;deletable=1;fixDash=0;collapsible=0;portConstraintRotation=0;points=[[0,0.5,0,0,0],[1,0.5,0,0,0]];backgroundOutline=0;resizeHeight=1;resizeWidth=1;" parent="1" vertex="1"><mxGeometry x="950" y="370" width="165" height="40" as="geometry"/></mxCell></object><object label="《%shapeType%》&#10;%className%&#10;%classDesc%" placeholders="1" shapeType="COMMAND" classPackage="code.generate" classDesc="根据项目信息生成项目框架" className="projectCodeGenerate" cmdType="" id="444"><mxCell style="swimlane;fontStyle=1;align=center;verticalAlign=top;childLayout=stackLayout;horizontal=1;startSize=60;horizontalStack=0;resizeParent=1;resizeParentMax=0;resizeLast=0;collapsible=1;marginBottom=0;fixDash=1;container=1;enumerate=0;treeMoving=1;swimlaneBody=1;fillOpacity=100;strokeOpacity=100;overflow=visible;rounded=0;swimlaneLine=1;sketch=0;shadow=0;arcSize=9;strokeWidth=1;fillStyle=auto;swimlaneFillColor=default;metaEdit=1;labelPadding=0;cloneable=1;separatorColor=none;swimlaneHead=1;noLabel=0;direction=east;portConstraint=none;portConstraintRotation=0;rotation=0;connectable=0;snapToPoint=0;perimeter=rectanglePerimeter;dropTarget=1;expand=1;part=1;backgroundOutline=1;movableLabel=1;autosize=1;fixedWidth=1;resizable=1;resizeWidth=0;resizeHeight=0;rotatable=1;treeFolding=0;pointerEvents=1;moveCells=0;comic=0;enumerateValue=123;allowArrows=0;fontFamily=Helvetica;fontSize=13;fillColor=#dae8fc;strokeColor=#6c8ebf;" parent="1" vertex="1"><mxGeometry x="860" y="450" width="350" height="200" as="geometry"><mxRectangle x="-950" y="80" width="350" height="70" as="alternateBounds"/></mxGeometry></mxCell></object><object label="%fieldModify% %fieldName%: %fieldType%    #%fieldDesc%" placeholders="1" shapeType="FIELD" fieldName="id" fieldType="Long" fieldModify="-" fieldDesc="项目id" id="472"><mxCell style="text;strokeColor=none;fillColor=none;align=left;verticalAlign=top;spacingLeft=4;spacingRight=4;overflow=hidden;rotatable=0;points=[];portConstraint=none;metaEdit=1;cloneable=1;rotation=0;connectable=1;container=0;dropTarget=1;imageAspect=1;absoluteArcSize=0;portConstraintRotation=0;snapToPoint=0;fixDash=0;pointerEvents=0;enumerate=0;resizeHeight=1;resizeWidth=1;autosize=1;part=1;movable=1;rounded=0;fontFamily=Helvetica;fontSize=13;fontColor=default;" parent="444" vertex="1"><mxGeometry y="60" width="350" height="30" as="geometry"/></mxCell></object><object label="《%shapeType%》" placeholders="1" shapeType="RULE_LIST" id="446"><mxCell style="swimlane;fontStyle=1;align=center;verticalAlign=top;childLayout=stackLayout;horizontal=1;startSize=28;horizontalStack=0;resizeParent=1;resizeParentMax=0;resizeLast=0;collapsible=1;marginBottom=0;fixDash=1;container=1;enumerate=0;treeMoving=1;swimlaneBody=1;fillOpacity=100;strokeOpacity=100;overflow=visible;rounded=0;swimlaneLine=1;sketch=0;shadow=0;arcSize=19;strokeWidth=1;fillStyle=auto;swimlaneFillColor=none;metaEdit=1;labelPadding=0;cloneable=1;separatorColor=none;swimlaneHead=1;noLabel=0;direction=east;portConstraint=none;portConstraintRotation=0;rotation=0;connectable=0;snapToPoint=0;perimeter=rectanglePerimeter;dropTarget=1;expand=1;part=1;backgroundOutline=1;movableLabel=1;autosize=1;fixedWidth=0;resizable=1;resizeWidth=0;resizeHeight=0;rotatable=1;treeFolding=0;pointerEvents=1;moveCells=0;comic=0;enumerateValue=123;allowArrows=0;fontFamily=Helvetica;fontSize=13;glass=0;editable=1;movable=1;deletable=1;fillColor=none;strokeColor=#b85450;gradientColor=none;" parent="444" vertex="1"><mxGeometry y="90" width="350" height="58" as="geometry"><mxRectangle y="256" width="420" height="50" as="alternateBounds"/></mxGeometry></mxCell></object><object label="《%shapeType%》" placeholders="1" shapeType="EVENT" id="448"><mxCell style="swimlane;fontStyle=1;align=center;verticalAlign=top;childLayout=stackLayout;horizontal=1;startSize=28;horizontalStack=0;resizeParent=1;resizeParentMax=0;resizeLast=0;collapsible=1;marginBottom=0;fixDash=1;container=1;enumerate=0;treeMoving=1;swimlaneBody=1;fillOpacity=100;strokeOpacity=100;overflow=visible;rounded=0;swimlaneLine=1;sketch=0;shadow=0;arcSize=19;strokeWidth=1;fillStyle=auto;swimlaneFillColor=none;metaEdit=1;labelPadding=0;cloneable=1;separatorColor=none;swimlaneHead=1;noLabel=0;direction=east;portConstraint=none;portConstraintRotation=0;rotation=0;connectable=0;snapToPoint=0;perimeter=rectanglePerimeter;dropTarget=1;expand=1;part=1;backgroundOutline=1;movableLabel=1;autosize=1;fixedWidth=0;resizable=1;resizeWidth=0;resizeHeight=0;rotatable=1;treeFolding=0;pointerEvents=1;moveCells=0;comic=0;enumerateValue=123;allowArrows=0;fontFamily=Helvetica;fontSize=13;glass=0;editable=1;movable=1;deletable=1;fillColor=none;strokeColor=#6c8ebf;gradientColor=#7ea6e0;" parent="444" vertex="1"><mxGeometry y="148" width="350" height="52" as="geometry"><mxRectangle y="204" width="420" height="50" as="alternateBounds"/></mxGeometry></mxCell></object><object label="%nodeDesc%" placeholders="1" nodeDesc="更新领域图谱云文件" shapeType="NODE" id="455"><mxCell style="rounded=0;whiteSpace=wrap;html=1;shadow=0;glass=0;sketch=0;fillStyle=auto;strokeWidth=1;metaEdit=1;resizable=1;rotatable=0;snapToPoint=0;connectable=1;absoluteArcSize=0;noLabel=0;labelPadding=0;allowArrows=1;recursiveResize=1;expand=1;editable=1;movable=1;deletable=1;fixDash=0;collapsible=0;portConstraintRotation=0;points=[[0,0.5,0,0,0],[1,0.5,0,0,0]];backgroundOutline=0;resizeHeight=1;resizeWidth=1;" parent="1" vertex="1"><mxGeometry x="2930" y="370" width="135" height="40" as="geometry"/></mxCell></object><object label="《%shapeType%》&#10;%className%&#10;%classDesc%" placeholders="1" shapeType="COMMAND" classPackage="chart.update" classDesc="更新领域图谱云文件" className="domainChartXmlUpdate" cmdType="" id="456"><mxCell style="swimlane;fontStyle=1;align=center;verticalAlign=top;childLayout=stackLayout;horizontal=1;startSize=60;horizontalStack=0;resizeParent=1;resizeParentMax=0;resizeLast=0;collapsible=1;marginBottom=0;fixDash=1;container=1;enumerate=0;treeMoving=1;swimlaneBody=1;fillOpacity=100;strokeOpacity=100;overflow=visible;rounded=0;swimlaneLine=1;sketch=0;shadow=0;arcSize=9;strokeWidth=1;fillStyle=auto;swimlaneFillColor=default;metaEdit=1;labelPadding=0;cloneable=1;separatorColor=none;swimlaneHead=1;noLabel=0;direction=east;portConstraint=none;portConstraintRotation=0;rotation=0;connectable=0;snapToPoint=0;perimeter=rectanglePerimeter;dropTarget=1;expand=1;part=1;backgroundOutline=1;movableLabel=1;autosize=1;fixedWidth=1;resizable=1;resizeWidth=0;resizeHeight=0;rotatable=1;treeFolding=0;pointerEvents=1;moveCells=0;comic=0;enumerateValue=123;allowArrows=0;fontFamily=Helvetica;fontSize=13;fillColor=#fff2cc;strokeColor=#d6b656;" parent="1" vertex="1"><mxGeometry x="2810" y="450" width="350" height="218" as="geometry"><mxRectangle x="-950" y="80" width="350" height="70" as="alternateBounds"/></mxGeometry></mxCell></object><object label="%fieldModify% %fieldName%: %fieldType%    #%fieldDesc%" placeholders="1" shapeType="FIELD" fieldName="id" fieldType="Long" fieldModify="-" fieldDesc="领域图谱id" id="458"><mxCell style="text;strokeColor=none;fillColor=none;align=left;verticalAlign=top;spacingLeft=4;spacingRight=4;overflow=hidden;rotatable=0;points=[];portConstraint=none;metaEdit=1;cloneable=1;rotation=0;connectable=1;container=0;dropTarget=1;imageAspect=1;absoluteArcSize=0;portConstraintRotation=0;snapToPoint=0;fixDash=0;pointerEvents=0;enumerate=0;resizeHeight=1;resizeWidth=1;autosize=1;part=1;movable=1;rounded=0;fontFamily=Helvetica;fontSize=13;fontColor=default;" parent="456" vertex="1"><mxGeometry y="60" width="350" height="23" as="geometry"/></mxCell></object><object label="%fieldModify% %fieldName%: %fieldType%    #%fieldDesc%" placeholders="1" shapeType="FIELD" fieldName="chartXml" fieldType="String" fieldModify="-" fieldDesc="图谱xml文件内容" id="460"><mxCell style="text;strokeColor=none;fillColor=none;align=left;verticalAlign=top;spacingLeft=4;spacingRight=4;overflow=hidden;rotatable=0;points=[];portConstraint=none;metaEdit=1;cloneable=1;rotation=0;connectable=1;container=0;dropTarget=1;imageAspect=1;absoluteArcSize=0;portConstraintRotation=0;snapToPoint=0;fixDash=0;pointerEvents=0;enumerate=0;resizeHeight=1;resizeWidth=1;autosize=1;part=1;movable=1;rounded=0;fontFamily=Helvetica;fontSize=13;fontColor=default;" parent="456" vertex="1"><mxGeometry y="83" width="350" height="25" as="geometry"/></mxCell></object><object label="《%shapeType%》" placeholders="1" shapeType="RULE_LIST" id="463"><mxCell style="swimlane;fontStyle=1;align=center;verticalAlign=top;childLayout=stackLayout;horizontal=1;startSize=28;horizontalStack=0;resizeParent=1;resizeParentMax=0;resizeLast=0;collapsible=1;marginBottom=0;fixDash=1;container=1;enumerate=0;treeMoving=1;swimlaneBody=1;fillOpacity=100;strokeOpacity=100;overflow=visible;rounded=0;swimlaneLine=1;sketch=0;shadow=0;arcSize=19;strokeWidth=1;fillStyle=auto;swimlaneFillColor=none;metaEdit=1;labelPadding=0;cloneable=1;separatorColor=none;swimlaneHead=1;noLabel=0;direction=east;portConstraint=none;portConstraintRotation=0;rotation=0;connectable=0;snapToPoint=0;perimeter=rectanglePerimeter;dropTarget=1;expand=1;part=1;backgroundOutline=1;movableLabel=1;autosize=1;fixedWidth=0;resizable=1;resizeWidth=0;resizeHeight=0;rotatable=1;treeFolding=0;pointerEvents=1;moveCells=0;comic=0;enumerateValue=123;allowArrows=0;fontFamily=Helvetica;fontSize=13;glass=0;editable=1;movable=1;deletable=1;fillColor=none;strokeColor=#b85450;gradientColor=none;" parent="456" vertex="1"><mxGeometry y="108" width="350" height="58" as="geometry"><mxRectangle y="256" width="420" height="50" as="alternateBounds"/></mxGeometry></mxCell></object><object label="rule: %ruleDesc%" placeholders="1" shapeType="RULE_ITEM" ruleDesc="规则描述" id="464"><mxCell style="text;strokeColor=none;fillColor=none;align=left;verticalAlign=top;spacingLeft=4;spacingRight=4;overflow=hidden;rotatable=0;points=[];portConstraint=none;metaEdit=1;cloneable=1;rotation=0;connectable=1;container=0;dropTarget=1;imageAspect=1;absoluteArcSize=0;portConstraintRotation=0;snapToPoint=0;fixDash=0;pointerEvents=0;enumerate=0;resizeHeight=1;resizeWidth=1;autosize=1;part=1;movable=1;rounded=0;fontFamily=Helvetica;fontSize=13;fontColor=default;" parent="463" vertex="1"><mxGeometry y="28" width="350" height="30" as="geometry"/></mxCell></object><object label="《%shapeType%》" placeholders="1" shapeType="EVENT" id="465"><mxCell style="swimlane;fontStyle=1;align=center;verticalAlign=top;childLayout=stackLayout;horizontal=1;startSize=28;horizontalStack=0;resizeParent=1;resizeParentMax=0;resizeLast=0;collapsible=1;marginBottom=0;fixDash=1;container=1;enumerate=0;treeMoving=1;swimlaneBody=1;fillOpacity=100;strokeOpacity=100;overflow=visible;rounded=0;swimlaneLine=1;sketch=0;shadow=0;arcSize=19;strokeWidth=1;fillStyle=auto;swimlaneFillColor=none;metaEdit=1;labelPadding=0;cloneable=1;separatorColor=none;swimlaneHead=1;noLabel=0;direction=east;portConstraint=none;portConstraintRotation=0;rotation=0;connectable=0;snapToPoint=0;perimeter=rectanglePerimeter;dropTarget=1;expand=1;part=1;backgroundOutline=1;movableLabel=1;autosize=1;fixedWidth=0;resizable=1;resizeWidth=0;resizeHeight=0;rotatable=1;treeFolding=0;pointerEvents=1;moveCells=0;comic=0;enumerateValue=123;allowArrows=0;fontFamily=Helvetica;fontSize=13;glass=0;editable=1;movable=1;deletable=1;fillColor=none;strokeColor=#6c8ebf;gradientColor=#7ea6e0;" parent="456" vertex="1"><mxGeometry y="166" width="350" height="52" as="geometry"><mxRectangle y="204" width="420" height="50" as="alternateBounds"/></mxGeometry></mxCell></object><object label="《%shapeType%》&#10;%className%&#10;%classDesc%" placeholders="1" shapeType="COMMAND" classPackage="script.generate" classDesc="生成领域图谱对应的运行脚本" className="domainChartScriptGen" cmdType="" id="466"><mxCell style="swimlane;fontStyle=1;align=center;verticalAlign=top;childLayout=stackLayout;horizontal=1;startSize=60;horizontalStack=0;resizeParent=1;resizeParentMax=0;resizeLast=0;collapsible=1;marginBottom=0;fixDash=1;container=1;enumerate=0;treeMoving=1;swimlaneBody=1;fillOpacity=100;strokeOpacity=100;overflow=visible;rounded=0;swimlaneLine=1;sketch=0;shadow=0;arcSize=9;strokeWidth=1;fillStyle=auto;swimlaneFillColor=default;metaEdit=1;labelPadding=0;cloneable=1;separatorColor=none;swimlaneHead=1;noLabel=0;direction=east;portConstraint=none;portConstraintRotation=0;rotation=0;connectable=0;snapToPoint=0;perimeter=rectanglePerimeter;dropTarget=1;expand=1;part=1;backgroundOutline=1;movableLabel=1;autosize=1;fixedWidth=1;resizable=1;resizeWidth=0;resizeHeight=0;rotatable=1;treeFolding=0;pointerEvents=1;moveCells=0;comic=0;enumerateValue=123;allowArrows=0;fontFamily=Helvetica;fontSize=13;fillColor=#fff2cc;strokeColor=#d6b656;" parent="1" vertex="1"><mxGeometry x="3220" y="450" width="350" height="193" as="geometry"><mxRectangle x="-950" y="80" width="350" height="70" as="alternateBounds"/></mxGeometry></mxCell></object><object label="%fieldModify% %fieldName%: %fieldType%    #%fieldDesc%" placeholders="1" shapeType="FIELD" fieldName="id" fieldType="Long" fieldModify="-" fieldDesc="领域图谱id" id="467"><mxCell style="text;strokeColor=none;fillColor=none;align=left;verticalAlign=top;spacingLeft=4;spacingRight=4;overflow=hidden;rotatable=0;points=[];portConstraint=none;metaEdit=1;cloneable=1;rotation=0;connectable=1;container=0;dropTarget=1;imageAspect=1;absoluteArcSize=0;portConstraintRotation=0;snapToPoint=0;fixDash=0;pointerEvents=0;enumerate=0;resizeHeight=1;resizeWidth=1;autosize=1;part=1;movable=1;rounded=0;fontFamily=Helvetica;fontSize=13;fontColor=default;" parent="466" vertex="1"><mxGeometry y="60" width="350" height="23" as="geometry"/></mxCell></object><object label="《%shapeType%》" placeholders="1" shapeType="RULE_LIST" id="469"><mxCell style="swimlane;fontStyle=1;align=center;verticalAlign=top;childLayout=stackLayout;horizontal=1;startSize=28;horizontalStack=0;resizeParent=1;resizeParentMax=0;resizeLast=0;collapsible=1;marginBottom=0;fixDash=1;container=1;enumerate=0;treeMoving=1;swimlaneBody=1;fillOpacity=100;strokeOpacity=100;overflow=visible;rounded=0;swimlaneLine=1;sketch=0;shadow=0;arcSize=19;strokeWidth=1;fillStyle=auto;swimlaneFillColor=none;metaEdit=1;labelPadding=0;cloneable=1;separatorColor=none;swimlaneHead=1;noLabel=0;direction=east;portConstraint=none;portConstraintRotation=0;rotation=0;connectable=0;snapToPoint=0;perimeter=rectanglePerimeter;dropTarget=1;expand=1;part=1;backgroundOutline=1;movableLabel=1;autosize=1;fixedWidth=0;resizable=1;resizeWidth=0;resizeHeight=0;rotatable=1;treeFolding=0;pointerEvents=1;moveCells=0;comic=0;enumerateValue=123;allowArrows=0;fontFamily=Helvetica;fontSize=13;glass=0;editable=1;movable=1;deletable=1;fillColor=none;strokeColor=#b85450;gradientColor=none;" parent="466" vertex="1"><mxGeometry y="83" width="350" height="58" as="geometry"><mxRectangle y="256" width="420" height="50" as="alternateBounds"/></mxGeometry></mxCell></object><object label="rule: %ruleDesc%" placeholders="1" shapeType="RULE_ITEM" ruleDesc="规则描述" id="470"><mxCell style="text;strokeColor=none;fillColor=none;align=left;verticalAlign=top;spacingLeft=4;spacingRight=4;overflow=hidden;rotatable=0;points=[];portConstraint=none;metaEdit=1;cloneable=1;rotation=0;connectable=1;container=0;dropTarget=1;imageAspect=1;absoluteArcSize=0;portConstraintRotation=0;snapToPoint=0;fixDash=0;pointerEvents=0;enumerate=0;resizeHeight=1;resizeWidth=1;autosize=1;part=1;movable=1;rounded=0;fontFamily=Helvetica;fontSize=13;fontColor=default;" parent="469" vertex="1"><mxGeometry y="28" width="350" height="30" as="geometry"/></mxCell></object><object label="《%shapeType%》" placeholders="1" shapeType="EVENT" id="471"><mxCell style="swimlane;fontStyle=1;align=center;verticalAlign=top;childLayout=stackLayout;horizontal=1;startSize=28;horizontalStack=0;resizeParent=1;resizeParentMax=0;resizeLast=0;collapsible=1;marginBottom=0;fixDash=1;container=1;enumerate=0;treeMoving=1;swimlaneBody=1;fillOpacity=100;strokeOpacity=100;overflow=visible;rounded=0;swimlaneLine=1;sketch=0;shadow=0;arcSize=19;strokeWidth=1;fillStyle=auto;swimlaneFillColor=none;metaEdit=1;labelPadding=0;cloneable=1;separatorColor=none;swimlaneHead=1;noLabel=0;direction=east;portConstraint=none;portConstraintRotation=0;rotation=0;connectable=0;snapToPoint=0;perimeter=rectanglePerimeter;dropTarget=1;expand=1;part=1;backgroundOutline=1;movableLabel=1;autosize=1;fixedWidth=0;resizable=1;resizeWidth=0;resizeHeight=0;rotatable=1;treeFolding=0;pointerEvents=1;moveCells=0;comic=0;enumerateValue=123;allowArrows=0;fontFamily=Helvetica;fontSize=13;glass=0;editable=1;movable=1;deletable=1;fillColor=none;strokeColor=#6c8ebf;gradientColor=#7ea6e0;" parent="466" vertex="1"><mxGeometry y="141" width="350" height="52" as="geometry"><mxRectangle y="204" width="420" height="50" as="alternateBounds"/></mxGeometry></mxCell></object></root></mxGraphModel></diagram></mxfile>